<?xml version="1.0" encoding="utf-8" standalone="no"?>
<!DOCTYPE svg PUBLIC "-//W3C//DTD SVG 1.1//EN"
  "http://www.w3.org/Graphics/SVG/1.1/DTD/svg11.dtd">
<svg xmlns:xlink="http://www.w3.org/1999/xlink" width="537.82587pt" height="309.756541pt" viewBox="0 0 537.82587 309.756541" xmlns="http://www.w3.org/2000/svg" version="1.1">
 <metadata>
  <rdf:RDF xmlns:dc="http://purl.org/dc/elements/1.1/" xmlns:cc="http://creativecommons.org/ns#" xmlns:rdf="http://www.w3.org/1999/02/22-rdf-syntax-ns#">
   <cc:Work>
    <dc:type rdf:resource="http://purl.org/dc/dcmitype/StillImage"/>
    <dc:date>2026-04-17T16:24:19.716692</dc:date>
    <dc:format>image/svg+xml</dc:format>
    <dc:creator>
     <cc:Agent>
      <dc:title>Matplotlib v3.10.8, https://matplotlib.org/</dc:title>
     </cc:Agent>
    </dc:creator>
   </cc:Work>
  </rdf:RDF>
 </metadata>
 <defs>
  <style type="text/css">*{stroke-linejoin: round; stroke-linecap: butt}</style>
 </defs>
 <g id="figure_1">
  <g id="patch_1">
   <path d="M 0 309.756541 
L 537.82587 309.756541 
L 537.82587 0 
L 0 0 
z
" style="fill: #ffffff"/>
  </g>
  <g id="axes_1">
   <g id="patch_2">
    <path d="M 65.096155 246.556317 
L 530.62587 246.556317 
L 530.62587 21.558281 
L 65.096155 21.558281 
z
" style="fill: #ffffff"/>
   </g>
   <g id="PathCollection_1">
    <defs>
     <path id="m0ae57a75e3" d="M 5.477226 0 
L -5.477226 -0 
" style="stroke: #a6a6a6; stroke-width: 1.5"/>
    </defs>
    <g clip-path="url(#pdc68b8304c)">
     <use xlink:href="#m0ae57a75e3" x="86.256597" y="230.93046" style="fill: #a6a6a6; stroke: #a6a6a6; stroke-width: 1.5"/>
    </g>
   </g>
   <g id="PathCollection_2">
    <g clip-path="url(#pdc68b8304c)">
     <use xlink:href="#m0ae57a75e3" x="170.898363" y="230.93046" style="fill: #a6a6a6; stroke: #a6a6a6; stroke-width: 1.5"/>
    </g>
   </g>
   <g id="PathCollection_3">
    <defs>
     <path id="m731f9b29e4" d="M 0 -3.708099 
L -3.708099 3.708099 
L 3.708099 3.708099 
z
" style="stroke: #000000; stroke-width: 0.3"/>
    </defs>
    <g clip-path="url(#pdc68b8304c)">
     <use xlink:href="#m731f9b29e4" x="255.540129" y="32.723244" style="fill: #009e73; stroke: #000000; stroke-width: 0.3"/>
    </g>
   </g>
   <g id="PathCollection_4">
    <defs>
     <path id="m6a7a40c10a" d="M 0 3.354102 
C 0.889518 3.354102 1.742724 3.000693 2.371708 2.371708 
C 3.000693 1.742724 3.354102 0.889518 3.354102 0 
C 3.354102 -0.889518 3.000693 -1.742724 2.371708 -2.371708 
C 1.742724 -3.000693 0.889518 -3.354102 0 -3.354102 
C -0.889518 -3.354102 -1.742724 -3.000693 -2.371708 -2.371708 
C -3.000693 -1.742724 -3.354102 -0.889518 -3.354102 0 
C -3.354102 0.889518 -3.000693 1.742724 -2.371708 2.371708 
C -1.742724 3.000693 -0.889518 3.354102 0 3.354102 
z
" style="stroke: #000000; stroke-width: 0.3"/>
    </defs>
    <g clip-path="url(#pdc68b8304c)">
     <use xlink:href="#m6a7a40c10a" x="255.540129" y="32.723244" style="fill: #009e73; stroke: #000000; stroke-width: 0.3"/>
    </g>
   </g>
   <g id="PathCollection_5">
    <g clip-path="url(#pdc68b8304c)">
     <use xlink:href="#m0ae57a75e3" x="340.181895" y="230.93046" style="fill: #a6a6a6; stroke: #a6a6a6; stroke-width: 1.5"/>
    </g>
   </g>
   <g id="PathCollection_6">
    <g clip-path="url(#pdc68b8304c)">
     <use xlink:href="#m0ae57a75e3" x="424.823662" y="230.93046" style="fill: #a6a6a6; stroke: #a6a6a6; stroke-width: 1.5"/>
    </g>
   </g>
   <g id="PathCollection_7">
    <defs>
     <path id="m996e0e92ec" d="M -1.85405 3.708099 
L 0 1.85405 
L 1.85405 3.708099 
L 3.708099 1.85405 
L 1.85405 0 
L 3.708099 -1.85405 
L 1.85405 -3.708099 
L 0 -1.85405 
L -1.85405 -3.708099 
L -3.708099 -1.85405 
L -1.85405 0 
L -3.708099 1.85405 
z
" style="stroke: #000000; stroke-width: 0.3"/>
    </defs>
    <g clip-path="url(#pdc68b8304c)">
     <use xlink:href="#m996e0e92ec" x="509.465428" y="124.821908" style="fill: #56b4e9; stroke: #000000; stroke-width: 0.3"/>
    </g>
   </g>
   <g id="PathCollection_8">
    <defs>
     <path id="m1216627709" d="M 0 3.354102 
C 0.889518 3.354102 1.742724 3.000693 2.371708 2.371708 
C 3.000693 1.742724 3.354102 0.889518 3.354102 0 
C 3.354102 -0.889518 3.000693 -1.742724 2.371708 -2.371708 
C 1.742724 -3.000693 0.889518 -3.354102 0 -3.354102 
C -0.889518 -3.354102 -1.742724 -3.000693 -2.371708 -2.371708 
C -3.000693 -1.742724 -3.354102 -0.889518 -3.354102 0 
C -3.354102 0.889518 -3.000693 1.742724 -2.371708 2.371708 
C -1.742724 3.000693 -0.889518 3.354102 0 3.354102 
z
" style="stroke: #000000; stroke-width: 0.3"/>
    </defs>
    <g clip-path="url(#pdc68b8304c)">
     <use xlink:href="#m1216627709" x="509.465428" y="83.702457" style="fill: #56b4e9; stroke: #000000; stroke-width: 0.3"/>
    </g>
   </g>
   <g id="matplotlib.axis_1">
    <g id="xtick_1">
     <g id="line2d_1">
      <defs>
       <path id="m073fff5cf7" d="M 0 0 
L 0 3.5 
" style="stroke: #000000; stroke-width: 0.8"/>
      </defs>
      <g>
       <use xlink:href="#m073fff5cf7" x="86.256597" y="246.556317" style="stroke: #000000; stroke-width: 0.8"/>
      </g>
     </g>
     <g id="text_1">
      <!-- T1_L_LminusK_logn -->
      <g transform="translate(9.279055 287.051198) rotate(-20) scale(0.08 -0.08)">
       <defs>
        <path id="DejaVuSerif-54" d="M 1222 0 
L 1222 331 
L 1819 331 
L 1819 4294 
L 447 4294 
L 447 3566 
L 63 3566 
L 63 4666 
L 4206 4666 
L 4206 3566 
L 3822 3566 
L 3822 4294 
L 2450 4294 
L 2450 331 
L 3047 331 
L 3047 0 
L 1222 0 
z
" transform="scale(0.015625)"/>
        <path id="DejaVuSerif-31" d="M 909 0 
L 909 331 
L 1722 331 
L 1722 4213 
L 781 3603 
L 781 4013 
L 1919 4750 
L 2350 4750 
L 2350 331 
L 3163 331 
L 3163 0 
L 909 0 
z
" transform="scale(0.015625)"/>
        <path id="DejaVuSerif-5f" d="M 3200 -1259 
L 3200 -1509 
L 0 -1509 
L 0 -1259 
L 3200 -1259 
z
" transform="scale(0.015625)"/>
        <path id="DejaVuSerif-4c" d="M 353 0 
L 353 331 
L 947 331 
L 947 4331 
L 353 4331 
L 353 4666 
L 2175 4666 
L 2175 4331 
L 1581 4331 
L 1581 384 
L 3713 384 
L 3713 1166 
L 4097 1166 
L 4097 0 
L 353 0 
z
" transform="scale(0.015625)"/>
        <path id="DejaVuSerif-6d" d="M 3316 2675 
Q 3481 3041 3739 3227 
Q 3997 3413 4341 3413 
Q 4863 3413 5119 3089 
Q 5375 2766 5375 2113 
L 5375 331 
L 5894 331 
L 5894 0 
L 4300 0 
L 4300 331 
L 4800 331 
L 4800 2047 
Q 4800 2556 4650 2772 
Q 4500 2988 4153 2988 
Q 3769 2988 3567 2697 
Q 3366 2406 3366 1850 
L 3366 331 
L 3866 331 
L 3866 0 
L 2291 0 
L 2291 331 
L 2791 331 
L 2791 2069 
Q 2791 2566 2641 2777 
Q 2491 2988 2144 2988 
Q 1759 2988 1557 2697 
Q 1356 2406 1356 1850 
L 1356 331 
L 1856 331 
L 1856 0 
L 263 0 
L 263 331 
L 781 331 
L 781 2994 
L 231 2994 
L 231 3322 
L 1356 3322 
L 1356 2731 
Q 1516 3063 1762 3238 
Q 2009 3413 2322 3413 
Q 2709 3413 2968 3220 
Q 3228 3028 3316 2675 
z
" transform="scale(0.015625)"/>
        <path id="DejaVuSerif-69" d="M 622 4353 
Q 622 4497 726 4603 
Q 831 4709 978 4709 
Q 1122 4709 1226 4603 
Q 1331 4497 1331 4353 
Q 1331 4206 1228 4103 
Q 1125 4000 978 4000 
Q 831 4000 726 4103 
Q 622 4206 622 4353 
z
M 1356 331 
L 1900 331 
L 1900 0 
L 231 0 
L 231 331 
L 781 331 
L 781 2988 
L 231 2988 
L 231 3322 
L 1356 3322 
L 1356 331 
z
" transform="scale(0.015625)"/>
        <path id="DejaVuSerif-6e" d="M 263 0 
L 263 331 
L 781 331 
L 781 2988 
L 231 2988 
L 231 3322 
L 1356 3322 
L 1356 2731 
Q 1516 3069 1770 3241 
Q 2025 3413 2363 3413 
Q 2913 3413 3172 3097 
Q 3431 2781 3431 2113 
L 3431 331 
L 3944 331 
L 3944 0 
L 2356 0 
L 2356 331 
L 2853 331 
L 2853 1931 
Q 2853 2541 2703 2767 
Q 2553 2994 2175 2994 
Q 1775 2994 1565 2701 
Q 1356 2409 1356 1850 
L 1356 331 
L 1856 331 
L 1856 0 
L 263 0 
z
" transform="scale(0.015625)"/>
        <path id="DejaVuSerif-75" d="M 2266 3322 
L 3341 3322 
L 3341 331 
L 3884 331 
L 3884 0 
L 2766 0 
L 2766 588 
Q 2606 256 2353 82 
Q 2100 -91 1766 -91 
Q 1213 -91 952 223 
Q 691 538 691 1209 
L 691 2988 
L 172 2988 
L 172 3322 
L 1269 3322 
L 1269 1388 
Q 1269 781 1417 556 
Q 1566 331 1947 331 
Q 2347 331 2556 625 
Q 2766 919 2766 1478 
L 2766 2988 
L 2266 2988 
L 2266 3322 
z
" transform="scale(0.015625)"/>
        <path id="DejaVuSerif-73" d="M 359 184 
L 359 959 
L 691 959 
Q 703 588 923 403 
Q 1144 219 1575 219 
Q 1963 219 2166 364 
Q 2369 509 2369 788 
Q 2369 1006 2220 1140 
Q 2072 1275 1594 1428 
L 1178 1569 
Q 750 1706 558 1912 
Q 366 2119 366 2438 
Q 366 2894 700 3153 
Q 1034 3413 1625 3413 
Q 1888 3413 2178 3344 
Q 2469 3275 2778 3144 
L 2778 2419 
L 2447 2419 
Q 2434 2741 2221 2922 
Q 2009 3103 1644 3103 
Q 1281 3103 1095 2975 
Q 909 2847 909 2591 
Q 909 2381 1050 2254 
Q 1191 2128 1613 1997 
L 2069 1856 
Q 2541 1709 2748 1489 
Q 2956 1269 2956 922 
Q 2956 450 2595 179 
Q 2234 -91 1600 -91 
Q 1278 -91 972 -22 
Q 666 47 359 184 
z
" transform="scale(0.015625)"/>
        <path id="DejaVuSerif-4b" d="M 353 0 
L 353 331 
L 947 331 
L 947 4331 
L 353 4331 
L 353 4666 
L 2175 4666 
L 2175 4331 
L 1581 4331 
L 1581 2566 
L 3591 4331 
L 3084 4331 
L 3084 4666 
L 4634 4666 
L 4634 4331 
L 4109 4331 
L 2106 2572 
L 4347 331 
L 4878 331 
L 4878 0 
L 3794 0 
L 1581 2216 
L 1581 331 
L 2175 331 
L 2175 0 
L 353 0 
z
" transform="scale(0.015625)"/>
        <path id="DejaVuSerif-6c" d="M 1313 331 
L 1856 331 
L 1856 0 
L 184 0 
L 184 331 
L 738 331 
L 738 4531 
L 184 4531 
L 184 4863 
L 1313 4863 
L 1313 331 
z
" transform="scale(0.015625)"/>
        <path id="DejaVuSerif-6f" d="M 1925 219 
Q 2388 219 2623 584 
Q 2859 950 2859 1663 
Q 2859 2375 2623 2739 
Q 2388 3103 1925 3103 
Q 1463 3103 1227 2739 
Q 991 2375 991 1663 
Q 991 950 1228 584 
Q 1466 219 1925 219 
z
M 1925 -91 
Q 1200 -91 759 389 
Q 319 869 319 1663 
Q 319 2456 758 2934 
Q 1197 3413 1925 3413 
Q 2653 3413 3092 2934 
Q 3531 2456 3531 1663 
Q 3531 869 3092 389 
Q 2653 -91 1925 -91 
z
" transform="scale(0.015625)"/>
        <path id="DejaVuSerif-67" d="M 3359 2988 
L 3359 72 
Q 3359 -644 2965 -1033 
Q 2572 -1422 1844 -1422 
Q 1516 -1422 1216 -1362 
Q 916 -1303 641 -1184 
L 641 -488 
L 941 -488 
Q 997 -813 1206 -963 
Q 1416 -1113 1806 -1113 
Q 2313 -1113 2548 -827 
Q 2784 -541 2784 72 
L 2784 519 
Q 2616 206 2355 57 
Q 2094 -91 1709 -91 
Q 1097 -91 708 395 
Q 319 881 319 1663 
Q 319 2444 706 2928 
Q 1094 3413 1709 3413 
Q 2094 3413 2355 3264 
Q 2616 3116 2784 2803 
L 2784 3322 
L 3909 3322 
L 3909 2988 
L 3359 2988 
z
M 2784 1825 
Q 2784 2422 2554 2737 
Q 2325 3053 1888 3053 
Q 1444 3053 1217 2703 
Q 991 2353 991 1663 
Q 991 975 1217 622 
Q 1444 269 1888 269 
Q 2325 269 2554 583 
Q 2784 897 2784 1497 
L 2784 1825 
z
" transform="scale(0.015625)"/>
       </defs>
       <use xlink:href="#DejaVuSerif-54"/>
       <use xlink:href="#DejaVuSerif-31" transform="translate(66.699219 0)"/>
       <use xlink:href="#DejaVuSerif-5f" transform="translate(130.322266 0)"/>
       <use xlink:href="#DejaVuSerif-4c" transform="translate(180.322266 0)"/>
       <use xlink:href="#DejaVuSerif-5f" transform="translate(246.728516 0)"/>
       <use xlink:href="#DejaVuSerif-4c" transform="translate(296.728516 0)"/>
       <use xlink:href="#DejaVuSerif-6d" transform="translate(363.134766 0)"/>
       <use xlink:href="#DejaVuSerif-69" transform="translate(457.958984 0)"/>
       <use xlink:href="#DejaVuSerif-6e" transform="translate(489.941406 0)"/>
       <use xlink:href="#DejaVuSerif-75" transform="translate(554.345703 0)"/>
       <use xlink:href="#DejaVuSerif-73" transform="translate(618.75 0)"/>
       <use xlink:href="#DejaVuSerif-4b" transform="translate(670.068359 0)"/>
       <use xlink:href="#DejaVuSerif-5f" transform="translate(744.775391 0)"/>
       <use xlink:href="#DejaVuSerif-6c" transform="translate(794.775391 0)"/>
       <use xlink:href="#DejaVuSerif-6f" transform="translate(826.757812 0)"/>
       <use xlink:href="#DejaVuSerif-67" transform="translate(886.962891 0)"/>
       <use xlink:href="#DejaVuSerif-6e" transform="translate(950.976562 0)"/>
      </g>
     </g>
    </g>
    <g id="xtick_2">
     <g id="line2d_2">
      <g>
       <use xlink:href="#m073fff5cf7" x="170.898363" y="246.556317" style="stroke: #000000; stroke-width: 0.8"/>
      </g>
     </g>
     <g id="text_2">
      <!-- T2_L_LminusK_logL -->
      <g transform="translate(93.77047 287.105921) rotate(-20) scale(0.08 -0.08)">
       <defs>
        <path id="DejaVuSerif-32" d="M 819 3553 
L 469 3553 
L 469 4384 
Q 803 4563 1142 4656 
Q 1481 4750 1806 4750 
Q 2534 4750 2956 4397 
Q 3378 4044 3378 3438 
Q 3378 2753 2422 1800 
Q 2347 1728 2309 1691 
L 1131 513 
L 3078 513 
L 3078 1088 
L 3444 1088 
L 3444 0 
L 434 0 
L 434 341 
L 1850 1753 
Q 2319 2222 2519 2614 
Q 2719 3006 2719 3438 
Q 2719 3909 2473 4175 
Q 2228 4441 1797 4441 
Q 1350 4441 1106 4219 
Q 863 3997 819 3553 
z
" transform="scale(0.015625)"/>
       </defs>
       <use xlink:href="#DejaVuSerif-54"/>
       <use xlink:href="#DejaVuSerif-32" transform="translate(66.699219 0)"/>
       <use xlink:href="#DejaVuSerif-5f" transform="translate(130.322266 0)"/>
       <use xlink:href="#DejaVuSerif-4c" transform="translate(180.322266 0)"/>
       <use xlink:href="#DejaVuSerif-5f" transform="translate(246.728516 0)"/>
       <use xlink:href="#DejaVuSerif-4c" transform="translate(296.728516 0)"/>
       <use xlink:href="#DejaVuSerif-6d" transform="translate(363.134766 0)"/>
       <use xlink:href="#DejaVuSerif-69" transform="translate(457.958984 0)"/>
       <use xlink:href="#DejaVuSerif-6e" transform="translate(489.941406 0)"/>
       <use xlink:href="#DejaVuSerif-75" transform="translate(554.345703 0)"/>
       <use xlink:href="#DejaVuSerif-73" transform="translate(618.75 0)"/>
       <use xlink:href="#DejaVuSerif-4b" transform="translate(670.068359 0)"/>
       <use xlink:href="#DejaVuSerif-5f" transform="translate(744.775391 0)"/>
       <use xlink:href="#DejaVuSerif-6c" transform="translate(794.775391 0)"/>
       <use xlink:href="#DejaVuSerif-6f" transform="translate(826.757812 0)"/>
       <use xlink:href="#DejaVuSerif-67" transform="translate(886.962891 0)"/>
       <use xlink:href="#DejaVuSerif-4c" transform="translate(950.976562 0)"/>
      </g>
     </g>
    </g>
    <g id="xtick_3">
     <g id="line2d_3">
      <g>
       <use xlink:href="#m073fff5cf7" x="255.540129" y="246.556317" style="stroke: #000000; stroke-width: 0.8"/>
      </g>
     </g>
     <g id="text_3">
      <!-- T3_L_logL_logn -->
      <g transform="translate(195.509944 280.882864) rotate(-20) scale(0.08 -0.08)">
       <defs>
        <path id="DejaVuSerif-33" d="M 622 4469 
Q 988 4606 1323 4678 
Q 1659 4750 1953 4750 
Q 2638 4750 3022 4454 
Q 3406 4159 3406 3634 
Q 3406 3213 3140 2930 
Q 2875 2647 2388 2547 
Q 2963 2466 3280 2130 
Q 3597 1794 3597 1259 
Q 3597 606 3158 257 
Q 2719 -91 1894 -91 
Q 1528 -91 1179 -12 
Q 831 66 488 225 
L 488 1131 
L 838 1131 
Q 869 681 1141 450 
Q 1413 219 1906 219 
Q 2384 219 2661 495 
Q 2938 772 2938 1253 
Q 2938 1803 2653 2086 
Q 2369 2369 1819 2369 
L 1522 2369 
L 1522 2688 
L 1678 2688 
Q 2225 2688 2498 2914 
Q 2772 3141 2772 3597 
Q 2772 4006 2547 4223 
Q 2322 4441 1900 4441 
Q 1478 4441 1245 4241 
Q 1013 4041 972 3647 
L 622 3647 
L 622 4469 
z
" transform="scale(0.015625)"/>
       </defs>
       <use xlink:href="#DejaVuSerif-54"/>
       <use xlink:href="#DejaVuSerif-33" transform="translate(66.699219 0)"/>
       <use xlink:href="#DejaVuSerif-5f" transform="translate(130.322266 0)"/>
       <use xlink:href="#DejaVuSerif-4c" transform="translate(180.322266 0)"/>
       <use xlink:href="#DejaVuSerif-5f" transform="translate(246.728516 0)"/>
       <use xlink:href="#DejaVuSerif-6c" transform="translate(296.728516 0)"/>
       <use xlink:href="#DejaVuSerif-6f" transform="translate(328.710938 0)"/>
       <use xlink:href="#DejaVuSerif-67" transform="translate(388.916016 0)"/>
       <use xlink:href="#DejaVuSerif-4c" transform="translate(452.929688 0)"/>
       <use xlink:href="#DejaVuSerif-5f" transform="translate(519.335938 0)"/>
       <use xlink:href="#DejaVuSerif-6c" transform="translate(569.335938 0)"/>
       <use xlink:href="#DejaVuSerif-6f" transform="translate(601.318359 0)"/>
       <use xlink:href="#DejaVuSerif-67" transform="translate(661.523438 0)"/>
       <use xlink:href="#DejaVuSerif-6e" transform="translate(725.537109 0)"/>
      </g>
     </g>
    </g>
    <g id="xtick_4">
     <g id="line2d_4">
      <g>
       <use xlink:href="#m073fff5cf7" x="340.181895" y="246.556317" style="stroke: #000000; stroke-width: 0.8"/>
      </g>
     </g>
     <g id="text_4">
      <!-- T4_LminusK_logL_n -->
      <g transform="translate(263.204354 287.051198) rotate(-20) scale(0.08 -0.08)">
       <defs>
        <path id="DejaVuSerif-34" d="M 2234 1581 
L 2234 4063 
L 641 1581 
L 2234 1581 
z
M 3609 0 
L 1484 0 
L 1484 331 
L 2234 331 
L 2234 1247 
L 197 1247 
L 197 1588 
L 2241 4750 
L 2859 4750 
L 2859 1581 
L 3750 1581 
L 3750 1247 
L 2859 1247 
L 2859 331 
L 3609 331 
L 3609 0 
z
" transform="scale(0.015625)"/>
       </defs>
       <use xlink:href="#DejaVuSerif-54"/>
       <use xlink:href="#DejaVuSerif-34" transform="translate(66.699219 0)"/>
       <use xlink:href="#DejaVuSerif-5f" transform="translate(130.322266 0)"/>
       <use xlink:href="#DejaVuSerif-4c" transform="translate(180.322266 0)"/>
       <use xlink:href="#DejaVuSerif-6d" transform="translate(246.728516 0)"/>
       <use xlink:href="#DejaVuSerif-69" transform="translate(341.552734 0)"/>
       <use xlink:href="#DejaVuSerif-6e" transform="translate(373.535156 0)"/>
       <use xlink:href="#DejaVuSerif-75" transform="translate(437.939453 0)"/>
       <use xlink:href="#DejaVuSerif-73" transform="translate(502.34375 0)"/>
       <use xlink:href="#DejaVuSerif-4b" transform="translate(553.662109 0)"/>
       <use xlink:href="#DejaVuSerif-5f" transform="translate(628.369141 0)"/>
       <use xlink:href="#DejaVuSerif-6c" transform="translate(678.369141 0)"/>
       <use xlink:href="#DejaVuSerif-6f" transform="translate(710.351562 0)"/>
       <use xlink:href="#DejaVuSerif-67" transform="translate(770.556641 0)"/>
       <use xlink:href="#DejaVuSerif-4c" transform="translate(834.570312 0)"/>
       <use xlink:href="#DejaVuSerif-5f" transform="translate(900.976562 0)"/>
       <use xlink:href="#DejaVuSerif-6e" transform="translate(950.976562 0)"/>
      </g>
     </g>
    </g>
    <g id="xtick_5">
     <g id="line2d_5">
      <g>
       <use xlink:href="#m073fff5cf7" x="424.823662" y="246.556317" style="stroke: #000000; stroke-width: 0.8"/>
      </g>
     </g>
     <g id="text_5">
      <!-- T5_L_logL_LminusK -->
      <g transform="translate(347.695769 287.105921) rotate(-20) scale(0.08 -0.08)">
       <defs>
        <path id="DejaVuSerif-35" d="M 3219 4666 
L 3219 4153 
L 1081 4153 
L 1081 2816 
Q 1244 2928 1461 2984 
Q 1678 3041 1947 3041 
Q 2703 3041 3140 2622 
Q 3578 2203 3578 1478 
Q 3578 738 3136 323 
Q 2694 -91 1894 -91 
Q 1572 -91 1234 -12 
Q 897 66 544 225 
L 544 1131 
L 897 1131 
Q 925 688 1179 453 
Q 1434 219 1894 219 
Q 2388 219 2653 544 
Q 2919 869 2919 1478 
Q 2919 2084 2655 2407 
Q 2391 2731 1894 2731 
Q 1613 2731 1398 2631 
Q 1184 2531 1019 2322 
L 750 2322 
L 750 4666 
L 3219 4666 
z
" transform="scale(0.015625)"/>
       </defs>
       <use xlink:href="#DejaVuSerif-54"/>
       <use xlink:href="#DejaVuSerif-35" transform="translate(66.699219 0)"/>
       <use xlink:href="#DejaVuSerif-5f" transform="translate(130.322266 0)"/>
       <use xlink:href="#DejaVuSerif-4c" transform="translate(180.322266 0)"/>
       <use xlink:href="#DejaVuSerif-5f" transform="translate(246.728516 0)"/>
       <use xlink:href="#DejaVuSerif-6c" transform="translate(296.728516 0)"/>
       <use xlink:href="#DejaVuSerif-6f" transform="translate(328.710938 0)"/>
       <use xlink:href="#DejaVuSerif-67" transform="translate(388.916016 0)"/>
       <use xlink:href="#DejaVuSerif-4c" transform="translate(452.929688 0)"/>
       <use xlink:href="#DejaVuSerif-5f" transform="translate(519.335938 0)"/>
       <use xlink:href="#DejaVuSerif-4c" transform="translate(569.335938 0)"/>
       <use xlink:href="#DejaVuSerif-6d" transform="translate(635.742188 0)"/>
       <use xlink:href="#DejaVuSerif-69" transform="translate(730.566406 0)"/>
       <use xlink:href="#DejaVuSerif-6e" transform="translate(762.548828 0)"/>
       <use xlink:href="#DejaVuSerif-75" transform="translate(826.953125 0)"/>
       <use xlink:href="#DejaVuSerif-73" transform="translate(891.357422 0)"/>
       <use xlink:href="#DejaVuSerif-4b" transform="translate(942.675781 0)"/>
      </g>
     </g>
    </g>
    <g id="xtick_6">
     <g id="line2d_6">
      <g>
       <use xlink:href="#m073fff5cf7" x="509.465428" y="246.556317" style="stroke: #000000; stroke-width: 0.8"/>
      </g>
     </g>
     <g id="text_6">
      <!-- T7_full4 -->
      <g transform="translate(478.047708 270.468778) rotate(-20) scale(0.08 -0.08)">
       <defs>
        <path id="DejaVuSerif-37" d="M 3609 4347 
L 1784 0 
L 1319 0 
L 3059 4153 
L 903 4153 
L 903 3578 
L 538 3578 
L 538 4666 
L 3609 4666 
L 3609 4347 
z
" transform="scale(0.015625)"/>
        <path id="DejaVuSerif-66" d="M 2753 4078 
L 2450 4078 
Q 2447 4313 2317 4434 
Q 2188 4556 1941 4556 
Q 1619 4556 1487 4379 
Q 1356 4203 1356 3750 
L 1356 3322 
L 2284 3322 
L 2284 2988 
L 1356 2988 
L 1356 331 
L 2094 331 
L 2094 0 
L 231 0 
L 231 331 
L 781 331 
L 781 2988 
L 231 2988 
L 231 3322 
L 781 3322 
L 781 3738 
Q 781 4294 1070 4578 
Q 1359 4863 1919 4863 
Q 2128 4863 2337 4825 
Q 2547 4788 2753 4709 
L 2753 4078 
z
" transform="scale(0.015625)"/>
       </defs>
       <use xlink:href="#DejaVuSerif-54"/>
       <use xlink:href="#DejaVuSerif-37" transform="translate(66.699219 0)"/>
       <use xlink:href="#DejaVuSerif-5f" transform="translate(130.322266 0)"/>
       <use xlink:href="#DejaVuSerif-66" transform="translate(180.322266 0)"/>
       <use xlink:href="#DejaVuSerif-75" transform="translate(217.333984 0)"/>
       <use xlink:href="#DejaVuSerif-6c" transform="translate(281.738281 0)"/>
       <use xlink:href="#DejaVuSerif-6c" transform="translate(313.720703 0)"/>
       <use xlink:href="#DejaVuSerif-34" transform="translate(345.703125 0)"/>
      </g>
     </g>
    </g>
    <g id="text_7">
     <!-- template -->
     <g transform="translate(275.400856 300.476854) scale(0.1 -0.1)">
      <defs>
       <path id="DejaVuSerif-74" d="M 691 2988 
L 184 2988 
L 184 3322 
L 691 3322 
L 691 4353 
L 1269 4353 
L 1269 3322 
L 2350 3322 
L 2350 2988 
L 1269 2988 
L 1269 878 
Q 1269 456 1350 337 
Q 1431 219 1650 219 
Q 1875 219 1978 351 
Q 2081 484 2088 781 
L 2522 781 
Q 2497 328 2275 118 
Q 2053 -91 1600 -91 
Q 1103 -91 897 129 
Q 691 350 691 878 
L 691 2988 
z
" transform="scale(0.015625)"/>
       <path id="DejaVuSerif-65" d="M 3469 1600 
L 991 1600 
L 991 1575 
Q 991 903 1244 561 
Q 1497 219 1991 219 
Q 2369 219 2611 417 
Q 2853 616 2950 1006 
L 3413 1006 
Q 3275 459 2904 184 
Q 2534 -91 1931 -91 
Q 1203 -91 761 389 
Q 319 869 319 1663 
Q 319 2450 753 2931 
Q 1188 3413 1894 3413 
Q 2647 3413 3050 2948 
Q 3453 2484 3469 1600 
z
M 2791 1931 
Q 2772 2513 2545 2808 
Q 2319 3103 1894 3103 
Q 1497 3103 1269 2806 
Q 1041 2509 991 1931 
L 2791 1931 
z
" transform="scale(0.015625)"/>
       <path id="DejaVuSerif-70" d="M 1313 1825 
L 1313 1497 
Q 1313 897 1542 583 
Q 1772 269 2209 269 
Q 2650 269 2876 622 
Q 3103 975 3103 1663 
Q 3103 2353 2876 2703 
Q 2650 3053 2209 3053 
Q 1772 3053 1542 2737 
Q 1313 2422 1313 1825 
z
M 738 2988 
L 184 2988 
L 184 3322 
L 1313 3322 
L 1313 2803 
Q 1481 3116 1742 3264 
Q 2003 3413 2388 3413 
Q 3000 3413 3387 2928 
Q 3775 2444 3775 1663 
Q 3775 881 3387 395 
Q 3000 -91 2388 -91 
Q 2003 -91 1742 57 
Q 1481 206 1313 519 
L 1313 -997 
L 1856 -997 
L 1856 -1331 
L 184 -1331 
L 184 -997 
L 738 -997 
L 738 2988 
z
" transform="scale(0.015625)"/>
       <path id="DejaVuSerif-61" d="M 2547 1044 
L 2547 1747 
L 1806 1747 
Q 1378 1747 1168 1562 
Q 959 1378 959 997 
Q 959 650 1171 447 
Q 1384 244 1747 244 
Q 2106 244 2326 466 
Q 2547 688 2547 1044 
z
M 3122 2075 
L 3122 331 
L 3634 331 
L 3634 0 
L 2547 0 
L 2547 359 
Q 2356 128 2106 18 
Q 1856 -91 1522 -91 
Q 969 -91 644 203 
Q 319 497 319 997 
Q 319 1513 691 1797 
Q 1063 2081 1741 2081 
L 2547 2081 
L 2547 2309 
Q 2547 2688 2317 2895 
Q 2088 3103 1672 3103 
Q 1328 3103 1125 2947 
Q 922 2791 872 2484 
L 575 2484 
L 575 3156 
Q 875 3284 1158 3348 
Q 1441 3413 1709 3413 
Q 2400 3413 2761 3070 
Q 3122 2728 3122 2075 
z
" transform="scale(0.015625)"/>
      </defs>
      <use xlink:href="#DejaVuSerif-74"/>
      <use xlink:href="#DejaVuSerif-65" transform="translate(40.185547 0)"/>
      <use xlink:href="#DejaVuSerif-6d" transform="translate(99.365234 0)"/>
      <use xlink:href="#DejaVuSerif-70" transform="translate(194.189453 0)"/>
      <use xlink:href="#DejaVuSerif-6c" transform="translate(258.203125 0)"/>
      <use xlink:href="#DejaVuSerif-61" transform="translate(290.185547 0)"/>
      <use xlink:href="#DejaVuSerif-74" transform="translate(349.804688 0)"/>
      <use xlink:href="#DejaVuSerif-65" transform="translate(389.990234 0)"/>
     </g>
    </g>
   </g>
   <g id="matplotlib.axis_2">
    <g id="ytick_1">
     <g id="line2d_7">
      <defs>
       <path id="m10588fcab4" d="M 0 0 
L -3.5 0 
" style="stroke: #000000; stroke-width: 0.8"/>
      </defs>
      <g>
       <use xlink:href="#m10588fcab4" x="65.096155" y="236.329134" style="stroke: #000000; stroke-width: 0.8"/>
      </g>
     </g>
     <g id="text_8">
      <!-- $\mathdefault{10^{3}}$ -->
      <g transform="translate(44.016155 239.368509) scale(0.08 -0.08)">
       <defs>
        <path id="DejaVuSerif-30" d="M 2034 219 
Q 2513 219 2750 744 
Q 2988 1269 2988 2328 
Q 2988 3391 2750 3916 
Q 2513 4441 2034 4441 
Q 1556 4441 1318 3916 
Q 1081 3391 1081 2328 
Q 1081 1269 1318 744 
Q 1556 219 2034 219 
z
M 2034 -91 
Q 1275 -91 848 546 
Q 422 1184 422 2328 
Q 422 3475 848 4112 
Q 1275 4750 2034 4750 
Q 2797 4750 3222 4112 
Q 3647 3475 3647 2328 
Q 3647 1184 3222 546 
Q 2797 -91 2034 -91 
z
" transform="scale(0.015625)"/>
       </defs>
       <use xlink:href="#DejaVuSerif-31" transform="translate(0 0.7125)"/>
       <use xlink:href="#DejaVuSerif-30" transform="translate(63.623047 0.7125)"/>
       <use xlink:href="#DejaVuSerif-33" transform="translate(128.154453 37.046875) scale(0.7)"/>
      </g>
     </g>
    </g>
    <g id="ytick_2">
     <g id="line2d_8">
      <g>
       <use xlink:href="#m10588fcab4" x="65.096155" y="168.147911" style="stroke: #000000; stroke-width: 0.8"/>
      </g>
     </g>
     <g id="text_9">
      <!-- $\mathdefault{10^{4}}$ -->
      <g transform="translate(44.016155 171.187286) scale(0.08 -0.08)">
       <use xlink:href="#DejaVuSerif-31" transform="translate(0 0.7125)"/>
       <use xlink:href="#DejaVuSerif-30" transform="translate(63.623047 0.7125)"/>
       <use xlink:href="#DejaVuSerif-34" transform="translate(128.154453 37.046875) scale(0.7)"/>
      </g>
     </g>
    </g>
    <g id="ytick_3">
     <g id="line2d_9">
      <g>
       <use xlink:href="#m10588fcab4" x="65.096155" y="99.966688" style="stroke: #000000; stroke-width: 0.8"/>
      </g>
     </g>
     <g id="text_10">
      <!-- $\mathdefault{10^{5}}$ -->
      <g transform="translate(44.016155 103.006063) scale(0.08 -0.08)">
       <use xlink:href="#DejaVuSerif-31" transform="translate(0 0.63125)"/>
       <use xlink:href="#DejaVuSerif-30" transform="translate(63.623047 0.63125)"/>
       <use xlink:href="#DejaVuSerif-35" transform="translate(128.154453 36.965625) scale(0.7)"/>
      </g>
     </g>
    </g>
    <g id="ytick_4">
     <g id="line2d_10">
      <g>
       <use xlink:href="#m10588fcab4" x="65.096155" y="31.785465" style="stroke: #000000; stroke-width: 0.8"/>
      </g>
     </g>
     <g id="text_11">
      <!-- $\mathdefault{10^{6}}$ -->
      <g transform="translate(44.016155 34.82484) scale(0.08 -0.08)">
       <defs>
        <path id="DejaVuSerif-36" d="M 2094 219 
Q 2534 219 2771 542 
Q 3009 866 3009 1472 
Q 3009 2078 2771 2401 
Q 2534 2725 2094 2725 
Q 1647 2725 1412 2412 
Q 1178 2100 1178 1509 
Q 1178 888 1415 553 
Q 1653 219 2094 219 
z
M 1075 2569 
Q 1288 2803 1556 2918 
Q 1825 3034 2163 3034 
Q 2859 3034 3264 2615 
Q 3669 2197 3669 1472 
Q 3669 763 3233 336 
Q 2797 -91 2069 -91 
Q 1278 -91 853 498 
Q 428 1088 428 2181 
Q 428 3406 931 4078 
Q 1434 4750 2350 4750 
Q 2597 4750 2869 4703 
Q 3141 4656 3425 4563 
L 3425 3794 
L 3072 3794 
Q 3034 4109 2831 4275 
Q 2628 4441 2284 4441 
Q 1678 4441 1381 3981 
Q 1084 3522 1075 2569 
z
" transform="scale(0.015625)"/>
       </defs>
       <use xlink:href="#DejaVuSerif-31" transform="translate(0 0.7125)"/>
       <use xlink:href="#DejaVuSerif-30" transform="translate(63.623047 0.7125)"/>
       <use xlink:href="#DejaVuSerif-36" transform="translate(128.154453 37.046875) scale(0.7)"/>
      </g>
     </g>
    </g>
    <g id="ytick_5">
     <g id="line2d_11">
      <defs>
       <path id="m5caa27aaeb" d="M 0 0 
L -2 0 
" style="stroke: #000000; stroke-width: 0.6"/>
      </defs>
      <g>
       <use xlink:href="#m5caa27aaeb" x="65.096155" y="242.936577" style="stroke: #000000; stroke-width: 0.6"/>
      </g>
     </g>
    </g>
    <g id="ytick_6">
     <g id="line2d_12">
      <g>
       <use xlink:href="#m5caa27aaeb" x="65.096155" y="239.448936" style="stroke: #000000; stroke-width: 0.6"/>
      </g>
     </g>
    </g>
    <g id="ytick_7">
     <g id="line2d_13">
      <g>
       <use xlink:href="#m5caa27aaeb" x="65.096155" y="215.804541" style="stroke: #000000; stroke-width: 0.6"/>
      </g>
     </g>
    </g>
    <g id="ytick_8">
     <g id="line2d_14">
      <g>
       <use xlink:href="#m5caa27aaeb" x="65.096155" y="203.798423" style="stroke: #000000; stroke-width: 0.6"/>
      </g>
     </g>
    </g>
    <g id="ytick_9">
     <g id="line2d_15">
      <g>
       <use xlink:href="#m5caa27aaeb" x="65.096155" y="195.279947" style="stroke: #000000; stroke-width: 0.6"/>
      </g>
     </g>
    </g>
    <g id="ytick_10">
     <g id="line2d_16">
      <g>
       <use xlink:href="#m5caa27aaeb" x="65.096155" y="188.672504" style="stroke: #000000; stroke-width: 0.6"/>
      </g>
     </g>
    </g>
    <g id="ytick_11">
     <g id="line2d_17">
      <g>
       <use xlink:href="#m5caa27aaeb" x="65.096155" y="183.27383" style="stroke: #000000; stroke-width: 0.6"/>
      </g>
     </g>
    </g>
    <g id="ytick_12">
     <g id="line2d_18">
      <g>
       <use xlink:href="#m5caa27aaeb" x="65.096155" y="178.709316" style="stroke: #000000; stroke-width: 0.6"/>
      </g>
     </g>
    </g>
    <g id="ytick_13">
     <g id="line2d_19">
      <g>
       <use xlink:href="#m5caa27aaeb" x="65.096155" y="174.755354" style="stroke: #000000; stroke-width: 0.6"/>
      </g>
     </g>
    </g>
    <g id="ytick_14">
     <g id="line2d_20">
      <g>
       <use xlink:href="#m5caa27aaeb" x="65.096155" y="171.267712" style="stroke: #000000; stroke-width: 0.6"/>
      </g>
     </g>
    </g>
    <g id="ytick_15">
     <g id="line2d_21">
      <g>
       <use xlink:href="#m5caa27aaeb" x="65.096155" y="147.623318" style="stroke: #000000; stroke-width: 0.6"/>
      </g>
     </g>
    </g>
    <g id="ytick_16">
     <g id="line2d_22">
      <g>
       <use xlink:href="#m5caa27aaeb" x="65.096155" y="135.6172" style="stroke: #000000; stroke-width: 0.6"/>
      </g>
     </g>
    </g>
    <g id="ytick_17">
     <g id="line2d_23">
      <g>
       <use xlink:href="#m5caa27aaeb" x="65.096155" y="127.098724" style="stroke: #000000; stroke-width: 0.6"/>
      </g>
     </g>
    </g>
    <g id="ytick_18">
     <g id="line2d_24">
      <g>
       <use xlink:href="#m5caa27aaeb" x="65.096155" y="120.491281" style="stroke: #000000; stroke-width: 0.6"/>
      </g>
     </g>
    </g>
    <g id="ytick_19">
     <g id="line2d_25">
      <g>
       <use xlink:href="#m5caa27aaeb" x="65.096155" y="115.092607" style="stroke: #000000; stroke-width: 0.6"/>
      </g>
     </g>
    </g>
    <g id="ytick_20">
     <g id="line2d_26">
      <g>
       <use xlink:href="#m5caa27aaeb" x="65.096155" y="110.528093" style="stroke: #000000; stroke-width: 0.6"/>
      </g>
     </g>
    </g>
    <g id="ytick_21">
     <g id="line2d_27">
      <g>
       <use xlink:href="#m5caa27aaeb" x="65.096155" y="106.574131" style="stroke: #000000; stroke-width: 0.6"/>
      </g>
     </g>
    </g>
    <g id="ytick_22">
     <g id="line2d_28">
      <g>
       <use xlink:href="#m5caa27aaeb" x="65.096155" y="103.086489" style="stroke: #000000; stroke-width: 0.6"/>
      </g>
     </g>
    </g>
    <g id="ytick_23">
     <g id="line2d_29">
      <g>
       <use xlink:href="#m5caa27aaeb" x="65.096155" y="79.442094" style="stroke: #000000; stroke-width: 0.6"/>
      </g>
     </g>
    </g>
    <g id="ytick_24">
     <g id="line2d_30">
      <g>
       <use xlink:href="#m5caa27aaeb" x="65.096155" y="67.435977" style="stroke: #000000; stroke-width: 0.6"/>
      </g>
     </g>
    </g>
    <g id="ytick_25">
     <g id="line2d_31">
      <g>
       <use xlink:href="#m5caa27aaeb" x="65.096155" y="58.917501" style="stroke: #000000; stroke-width: 0.6"/>
      </g>
     </g>
    </g>
    <g id="ytick_26">
     <g id="line2d_32">
      <g>
       <use xlink:href="#m5caa27aaeb" x="65.096155" y="52.310058" style="stroke: #000000; stroke-width: 0.6"/>
      </g>
     </g>
    </g>
    <g id="ytick_27">
     <g id="line2d_33">
      <g>
       <use xlink:href="#m5caa27aaeb" x="65.096155" y="46.911384" style="stroke: #000000; stroke-width: 0.6"/>
      </g>
     </g>
    </g>
    <g id="ytick_28">
     <g id="line2d_34">
      <g>
       <use xlink:href="#m5caa27aaeb" x="65.096155" y="42.34687" style="stroke: #000000; stroke-width: 0.6"/>
      </g>
     </g>
    </g>
    <g id="ytick_29">
     <g id="line2d_35">
      <g>
       <use xlink:href="#m5caa27aaeb" x="65.096155" y="38.392908" style="stroke: #000000; stroke-width: 0.6"/>
      </g>
     </g>
    </g>
    <g id="ytick_30">
     <g id="line2d_36">
      <g>
       <use xlink:href="#m5caa27aaeb" x="65.096155" y="34.905266" style="stroke: #000000; stroke-width: 0.6"/>
      </g>
     </g>
    </g>
    <g id="text_12">
     <!-- max|coeff| among non-unsupported fits -->
     <g transform="translate(37.658343 233.723706) rotate(-90) scale(0.1 -0.1)">
      <defs>
       <path id="DejaVuSerif-78" d="M 1863 2028 
L 2559 2988 
L 2113 2988 
L 2113 3322 
L 3391 3322 
L 3391 2988 
L 2950 2988 
L 2059 1759 
L 3097 331 
L 3531 331 
L 3531 0 
L 1997 0 
L 1997 331 
L 2419 331 
L 1697 1325 
L 972 331 
L 1403 331 
L 1403 0 
L 141 0 
L 141 331 
L 581 331 
L 1497 1594 
L 488 2988 
L 78 2988 
L 78 3322 
L 1563 3322 
L 1563 2988 
L 1166 2988 
L 1863 2028 
z
" transform="scale(0.015625)"/>
       <path id="DejaVuSerif-7c" d="M 1331 4891 
L 1331 -1509 
L 825 -1509 
L 825 4891 
L 1331 4891 
z
" transform="scale(0.015625)"/>
       <path id="DejaVuSerif-63" d="M 3291 997 
Q 3169 466 2822 187 
Q 2475 -91 1925 -91 
Q 1200 -91 759 389 
Q 319 869 319 1663 
Q 319 2459 759 2936 
Q 1200 3413 1925 3413 
Q 2241 3413 2553 3339 
Q 2866 3266 3181 3116 
L 3181 2266 
L 2847 2266 
Q 2781 2703 2561 2903 
Q 2341 3103 1931 3103 
Q 1466 3103 1228 2742 
Q 991 2381 991 1663 
Q 991 944 1227 581 
Q 1463 219 1931 219 
Q 2303 219 2525 412 
Q 2747 606 2828 997 
L 3291 997 
z
" transform="scale(0.015625)"/>
       <path id="DejaVuSerif-20" transform="scale(0.015625)"/>
       <path id="DejaVuSerif-2d" d="M 281 1959 
L 1881 1959 
L 1881 1472 
L 281 1472 
L 281 1959 
z
" transform="scale(0.015625)"/>
       <path id="DejaVuSerif-72" d="M 3059 3328 
L 3059 2497 
L 2728 2497 
Q 2713 2744 2591 2866 
Q 2469 2988 2234 2988 
Q 1809 2988 1582 2694 
Q 1356 2400 1356 1850 
L 1356 331 
L 2022 331 
L 2022 0 
L 263 0 
L 263 331 
L 781 331 
L 781 2994 
L 231 2994 
L 231 3322 
L 1356 3322 
L 1356 2731 
Q 1525 3078 1790 3245 
Q 2056 3413 2438 3413 
Q 2578 3413 2733 3391 
Q 2888 3369 3059 3328 
z
" transform="scale(0.015625)"/>
       <path id="DejaVuSerif-64" d="M 3359 331 
L 3909 331 
L 3909 0 
L 2784 0 
L 2784 519 
Q 2616 206 2355 57 
Q 2094 -91 1709 -91 
Q 1097 -91 708 395 
Q 319 881 319 1663 
Q 319 2444 706 2928 
Q 1094 3413 1709 3413 
Q 2094 3413 2355 3264 
Q 2616 3116 2784 2803 
L 2784 4531 
L 2241 4531 
L 2241 4863 
L 3359 4863 
L 3359 331 
z
M 2784 1497 
L 2784 1825 
Q 2784 2422 2554 2737 
Q 2325 3053 1888 3053 
Q 1444 3053 1217 2703 
Q 991 2353 991 1663 
Q 991 975 1217 622 
Q 1444 269 1888 269 
Q 2325 269 2554 583 
Q 2784 897 2784 1497 
z
" transform="scale(0.015625)"/>
      </defs>
      <use xlink:href="#DejaVuSerif-6d"/>
      <use xlink:href="#DejaVuSerif-61" transform="translate(94.824219 0)"/>
      <use xlink:href="#DejaVuSerif-78" transform="translate(154.443359 0)"/>
      <use xlink:href="#DejaVuSerif-7c" transform="translate(210.839844 0)"/>
      <use xlink:href="#DejaVuSerif-63" transform="translate(244.53125 0)"/>
      <use xlink:href="#DejaVuSerif-6f" transform="translate(300.537109 0)"/>
      <use xlink:href="#DejaVuSerif-65" transform="translate(360.742188 0)"/>
      <use xlink:href="#DejaVuSerif-66" transform="translate(419.921875 0)"/>
      <use xlink:href="#DejaVuSerif-66" transform="translate(456.933594 0)"/>
      <use xlink:href="#DejaVuSerif-7c" transform="translate(493.945312 0)"/>
      <use xlink:href="#DejaVuSerif-20" transform="translate(527.636719 0)"/>
      <use xlink:href="#DejaVuSerif-61" transform="translate(559.423828 0)"/>
      <use xlink:href="#DejaVuSerif-6d" transform="translate(619.042969 0)"/>
      <use xlink:href="#DejaVuSerif-6f" transform="translate(713.867188 0)"/>
      <use xlink:href="#DejaVuSerif-6e" transform="translate(774.072266 0)"/>
      <use xlink:href="#DejaVuSerif-67" transform="translate(838.476562 0)"/>
      <use xlink:href="#DejaVuSerif-20" transform="translate(902.490234 0)"/>
      <use xlink:href="#DejaVuSerif-6e" transform="translate(934.277344 0)"/>
      <use xlink:href="#DejaVuSerif-6f" transform="translate(998.681641 0)"/>
      <use xlink:href="#DejaVuSerif-6e" transform="translate(1058.886719 0)"/>
      <use xlink:href="#DejaVuSerif-2d" transform="translate(1123.291016 0)"/>
      <use xlink:href="#DejaVuSerif-75" transform="translate(1157.080078 0)"/>
      <use xlink:href="#DejaVuSerif-6e" transform="translate(1221.484375 0)"/>
      <use xlink:href="#DejaVuSerif-73" transform="translate(1285.888672 0)"/>
      <use xlink:href="#DejaVuSerif-75" transform="translate(1337.207031 0)"/>
      <use xlink:href="#DejaVuSerif-70" transform="translate(1401.611328 0)"/>
      <use xlink:href="#DejaVuSerif-70" transform="translate(1465.625 0)"/>
      <use xlink:href="#DejaVuSerif-6f" transform="translate(1529.638672 0)"/>
      <use xlink:href="#DejaVuSerif-72" transform="translate(1589.84375 0)"/>
      <use xlink:href="#DejaVuSerif-74" transform="translate(1637.646484 0)"/>
      <use xlink:href="#DejaVuSerif-65" transform="translate(1677.832031 0)"/>
      <use xlink:href="#DejaVuSerif-64" transform="translate(1737.011719 0)"/>
      <use xlink:href="#DejaVuSerif-20" transform="translate(1801.025391 0)"/>
      <use xlink:href="#DejaVuSerif-66" transform="translate(1832.8125 0)"/>
      <use xlink:href="#DejaVuSerif-69" transform="translate(1869.824219 0)"/>
      <use xlink:href="#DejaVuSerif-74" transform="translate(1901.806641 0)"/>
      <use xlink:href="#DejaVuSerif-73" transform="translate(1941.992188 0)"/>
     </g>
    </g>
   </g>
   <g id="line2d_37">
    <path d="M 65.096155 236.329134 
L 530.62587 236.329134 
" clip-path="url(#pdc68b8304c)" style="fill: none; stroke-dasharray: 4.07,1.76; stroke-dashoffset: 0; stroke: #444444; stroke-width: 1.1"/>
   </g>
   <g id="line2d_38">
    <path d="M 65.096155 31.785465 
L 530.62587 31.785465 
" clip-path="url(#pdc68b8304c)" style="fill: none; stroke-dasharray: 1.1,1.815; stroke-dashoffset: 0; stroke: #999999; stroke-width: 1.1"/>
   </g>
   <g id="line2d_39">
    <path d="M 255.540129 32.723244 
L 255.540129 32.723244 
" clip-path="url(#pdc68b8304c)" style="fill: none; stroke: #009e73; stroke-opacity: 0.85; stroke-width: 2.2; stroke-linecap: square"/>
   </g>
   <g id="line2d_40">
    <path d="M 509.465428 124.821908 
L 509.465428 83.702457 
" clip-path="url(#pdc68b8304c)" style="fill: none; stroke: #56b4e9; stroke-opacity: 0.85; stroke-width: 2.2; stroke-linecap: square"/>
   </g>
   <g id="patch_3">
    <path d="M 65.096155 246.556317 
L 65.096155 21.558281 
" style="fill: none; stroke: #000000; stroke-width: 0.8; stroke-linejoin: miter; stroke-linecap: square"/>
   </g>
   <g id="patch_4">
    <path d="M 530.62587 246.556317 
L 530.62587 21.558281 
" style="fill: none; stroke: #000000; stroke-width: 0.8; stroke-linejoin: miter; stroke-linecap: square"/>
   </g>
   <g id="patch_5">
    <path d="M 65.096155 246.556317 
L 530.62587 246.556317 
" style="fill: none; stroke: #000000; stroke-width: 0.8; stroke-linejoin: miter; stroke-linecap: square"/>
   </g>
   <g id="patch_6">
    <path d="M 65.096155 21.558281 
L 530.62587 21.558281 
" style="fill: none; stroke: #000000; stroke-width: 0.8; stroke-linejoin: miter; stroke-linecap: square"/>
   </g>
   <g id="text_13">
    <!-- 0 hits -->
    <g style="fill: #737373" transform="translate(76.341206 223.871085) scale(0.07 -0.07)">
     <defs>
      <path id="DejaVuSerif-68" d="M 263 0 
L 263 331 
L 781 331 
L 781 4531 
L 231 4531 
L 231 4863 
L 1356 4863 
L 1356 2731 
Q 1516 3069 1770 3241 
Q 2025 3413 2363 3413 
Q 2913 3413 3172 3097 
Q 3431 2781 3431 2113 
L 3431 331 
L 3944 331 
L 3944 0 
L 2356 0 
L 2356 331 
L 2853 331 
L 2853 1931 
Q 2853 2541 2704 2764 
Q 2556 2988 2175 2988 
Q 1775 2988 1565 2697 
Q 1356 2406 1356 1850 
L 1356 331 
L 1856 331 
L 1856 0 
L 263 0 
z
" transform="scale(0.015625)"/>
     </defs>
     <use xlink:href="#DejaVuSerif-30"/>
     <use xlink:href="#DejaVuSerif-20" transform="translate(63.623047 0)"/>
     <use xlink:href="#DejaVuSerif-68" transform="translate(95.410156 0)"/>
     <use xlink:href="#DejaVuSerif-69" transform="translate(159.814453 0)"/>
     <use xlink:href="#DejaVuSerif-74" transform="translate(191.796875 0)"/>
     <use xlink:href="#DejaVuSerif-73" transform="translate(231.982422 0)"/>
    </g>
   </g>
   <g id="text_14">
    <!-- 0 hits -->
    <g style="fill: #737373" transform="translate(160.982972 223.871085) scale(0.07 -0.07)">
     <use xlink:href="#DejaVuSerif-30"/>
     <use xlink:href="#DejaVuSerif-20" transform="translate(63.623047 0)"/>
     <use xlink:href="#DejaVuSerif-68" transform="translate(95.410156 0)"/>
     <use xlink:href="#DejaVuSerif-69" transform="translate(159.814453 0)"/>
     <use xlink:href="#DejaVuSerif-74" transform="translate(191.796875 0)"/>
     <use xlink:href="#DejaVuSerif-73" transform="translate(231.982422 0)"/>
    </g>
   </g>
   <g id="text_15">
    <!-- n=1 -->
    <g transform="translate(248.126145 28.98859) scale(0.07 -0.07)">
     <defs>
      <path id="DejaVuSerif-3d" d="M 678 2894 
L 4684 2894 
L 4684 2394 
L 678 2394 
L 678 2894 
z
M 678 1619 
L 4684 1619 
L 4684 1119 
L 678 1119 
L 678 1619 
z
" transform="scale(0.015625)"/>
     </defs>
     <use xlink:href="#DejaVuSerif-6e"/>
     <use xlink:href="#DejaVuSerif-3d" transform="translate(64.404297 0)"/>
     <use xlink:href="#DejaVuSerif-31" transform="translate(148.193359 0)"/>
    </g>
   </g>
   <g id="text_16">
    <!-- 0 hits -->
    <g style="fill: #737373" transform="translate(330.266505 223.871085) scale(0.07 -0.07)">
     <use xlink:href="#DejaVuSerif-30"/>
     <use xlink:href="#DejaVuSerif-20" transform="translate(63.623047 0)"/>
     <use xlink:href="#DejaVuSerif-68" transform="translate(95.410156 0)"/>
     <use xlink:href="#DejaVuSerif-69" transform="translate(159.814453 0)"/>
     <use xlink:href="#DejaVuSerif-74" transform="translate(191.796875 0)"/>
     <use xlink:href="#DejaVuSerif-73" transform="translate(231.982422 0)"/>
    </g>
   </g>
   <g id="text_17">
    <!-- 0 hits -->
    <g style="fill: #737373" transform="translate(414.908271 223.871085) scale(0.07 -0.07)">
     <use xlink:href="#DejaVuSerif-30"/>
     <use xlink:href="#DejaVuSerif-20" transform="translate(63.623047 0)"/>
     <use xlink:href="#DejaVuSerif-68" transform="translate(95.410156 0)"/>
     <use xlink:href="#DejaVuSerif-69" transform="translate(159.814453 0)"/>
     <use xlink:href="#DejaVuSerif-74" transform="translate(191.796875 0)"/>
     <use xlink:href="#DejaVuSerif-73" transform="translate(231.982422 0)"/>
    </g>
   </g>
   <g id="text_18">
    <!-- n=90 -->
    <g transform="translate(499.824569 79.967804) scale(0.07 -0.07)">
     <defs>
      <path id="DejaVuSerif-39" d="M 2994 2091 
Q 2784 1856 2512 1740 
Q 2241 1625 1900 1625 
Q 1206 1625 804 2044 
Q 403 2463 403 3188 
Q 403 3897 839 4323 
Q 1275 4750 2003 4750 
Q 2794 4750 3217 4161 
Q 3641 3572 3641 2478 
Q 3641 1253 3137 581 
Q 2634 -91 1722 -91 
Q 1475 -91 1203 -44 
Q 931 3 647 97 
L 647 872 
L 997 872 
Q 1038 556 1241 387 
Q 1444 219 1784 219 
Q 2391 219 2687 676 
Q 2984 1134 2994 2091 
z
M 1978 4441 
Q 1534 4441 1298 4117 
Q 1063 3794 1063 3188 
Q 1063 2581 1298 2256 
Q 1534 1931 1978 1931 
Q 2422 1931 2658 2245 
Q 2894 2559 2894 3150 
Q 2894 3772 2656 4106 
Q 2419 4441 1978 4441 
z
" transform="scale(0.015625)"/>
     </defs>
     <use xlink:href="#DejaVuSerif-6e"/>
     <use xlink:href="#DejaVuSerif-3d" transform="translate(64.404297 0)"/>
     <use xlink:href="#DejaVuSerif-39" transform="translate(148.193359 0)"/>
     <use xlink:href="#DejaVuSerif-30" transform="translate(211.816406 0)"/>
    </g>
   </g>
   <g id="text_19">
    <!-- D -->
    <g transform="translate(69.751452 35.936211) scale(0.13 -0.13)">
     <defs>
      <path id="DejaVuSerif-Bold-44" d="M 2100 378 
L 2534 378 
Q 3266 378 3605 847 
Q 3944 1316 3944 2338 
Q 3944 3353 3606 3820 
Q 3269 4288 2534 4288 
L 2100 4288 
L 2100 378 
z
M 300 0 
L 300 378 
L 897 378 
L 897 4288 
L 300 4288 
L 300 4666 
L 2694 4666 
Q 3950 4666 4615 4066 
Q 5281 3466 5281 2338 
Q 5281 1203 4614 601 
Q 3947 0 2694 0 
L 300 0 
z
" transform="scale(0.015625)"/>
     </defs>
     <use xlink:href="#DejaVuSerif-Bold-44"/>
    </g>
   </g>
   <g id="text_20">
    <!-- Wide-cap coefficient scale by template -->
    <g transform="translate(190.183044 15.558281) scale(0.11 -0.11)">
     <defs>
      <path id="DejaVuSerif-57" d="M 4878 0 
L 4366 0 
L 3297 3794 
L 2228 0 
L 1716 0 
L 494 4331 
L 31 4331 
L 31 4666 
L 1734 4666 
L 1734 4331 
L 1153 4331 
L 2125 884 
L 3188 4666 
L 3694 4666 
L 4775 844 
L 5753 4331 
L 5216 4331 
L 5216 4666 
L 6559 4666 
L 6559 4331 
L 6100 4331 
L 4878 0 
z
" transform="scale(0.015625)"/>
      <path id="DejaVuSerif-62" d="M 738 331 
L 738 4531 
L 184 4531 
L 184 4863 
L 1313 4863 
L 1313 2803 
Q 1481 3116 1742 3264 
Q 2003 3413 2388 3413 
Q 3000 3413 3387 2928 
Q 3775 2444 3775 1663 
Q 3775 881 3387 395 
Q 3000 -91 2388 -91 
Q 2003 -91 1742 57 
Q 1481 206 1313 519 
L 1313 0 
L 184 0 
L 184 331 
L 738 331 
z
M 1313 1497 
Q 1313 897 1542 583 
Q 1772 269 2209 269 
Q 2650 269 2876 622 
Q 3103 975 3103 1663 
Q 3103 2353 2876 2703 
Q 2650 3053 2209 3053 
Q 1772 3053 1542 2737 
Q 1313 2422 1313 1825 
L 1313 1497 
z
" transform="scale(0.015625)"/>
      <path id="DejaVuSerif-79" d="M 1381 -609 
L 1600 -56 
L 359 2988 
L -19 2988 
L -19 3322 
L 1509 3322 
L 1509 2988 
L 978 2988 
L 1913 703 
L 2847 2988 
L 2350 2988 
L 2350 3322 
L 3597 3322 
L 3597 2988 
L 3225 2988 
L 1703 -750 
Q 1547 -1138 1356 -1280 
Q 1166 -1422 819 -1422 
Q 672 -1422 517 -1397 
Q 363 -1372 206 -1325 
L 206 -691 
L 500 -691 
Q 519 -903 608 -995 
Q 697 -1088 884 -1088 
Q 1056 -1088 1161 -992 
Q 1266 -897 1381 -609 
z
" transform="scale(0.015625)"/>
     </defs>
     <use xlink:href="#DejaVuSerif-57"/>
     <use xlink:href="#DejaVuSerif-69" transform="translate(101.033203 0)"/>
     <use xlink:href="#DejaVuSerif-64" transform="translate(133.015625 0)"/>
     <use xlink:href="#DejaVuSerif-65" transform="translate(197.029297 0)"/>
     <use xlink:href="#DejaVuSerif-2d" transform="translate(256.208984 0)"/>
     <use xlink:href="#DejaVuSerif-63" transform="translate(289.998047 0)"/>
     <use xlink:href="#DejaVuSerif-61" transform="translate(346.003906 0)"/>
     <use xlink:href="#DejaVuSerif-70" transform="translate(405.623047 0)"/>
     <use xlink:href="#DejaVuSerif-20" transform="translate(469.636719 0)"/>
     <use xlink:href="#DejaVuSerif-63" transform="translate(501.423828 0)"/>
     <use xlink:href="#DejaVuSerif-6f" transform="translate(557.429688 0)"/>
     <use xlink:href="#DejaVuSerif-65" transform="translate(617.634766 0)"/>
     <use xlink:href="#DejaVuSerif-66" transform="translate(676.814453 0)"/>
     <use xlink:href="#DejaVuSerif-66" transform="translate(713.826172 0)"/>
     <use xlink:href="#DejaVuSerif-69" transform="translate(750.837891 0)"/>
     <use xlink:href="#DejaVuSerif-63" transform="translate(782.820312 0)"/>
     <use xlink:href="#DejaVuSerif-69" transform="translate(838.826172 0)"/>
     <use xlink:href="#DejaVuSerif-65" transform="translate(870.808594 0)"/>
     <use xlink:href="#DejaVuSerif-6e" transform="translate(929.988281 0)"/>
     <use xlink:href="#DejaVuSerif-74" transform="translate(994.392578 0)"/>
     <use xlink:href="#DejaVuSerif-20" transform="translate(1034.578125 0)"/>
     <use xlink:href="#DejaVuSerif-73" transform="translate(1066.365234 0)"/>
     <use xlink:href="#DejaVuSerif-63" transform="translate(1117.683594 0)"/>
     <use xlink:href="#DejaVuSerif-61" transform="translate(1173.689453 0)"/>
     <use xlink:href="#DejaVuSerif-6c" transform="translate(1233.308594 0)"/>
     <use xlink:href="#DejaVuSerif-65" transform="translate(1265.291016 0)"/>
     <use xlink:href="#DejaVuSerif-20" transform="translate(1324.470703 0)"/>
     <use xlink:href="#DejaVuSerif-62" transform="translate(1356.257812 0)"/>
     <use xlink:href="#DejaVuSerif-79" transform="translate(1420.271484 0)"/>
     <use xlink:href="#DejaVuSerif-20" transform="translate(1476.765625 0)"/>
     <use xlink:href="#DejaVuSerif-74" transform="translate(1508.552734 0)"/>
     <use xlink:href="#DejaVuSerif-65" transform="translate(1548.738281 0)"/>
     <use xlink:href="#DejaVuSerif-6d" transform="translate(1607.917969 0)"/>
     <use xlink:href="#DejaVuSerif-70" transform="translate(1702.742188 0)"/>
     <use xlink:href="#DejaVuSerif-6c" transform="translate(1766.755859 0)"/>
     <use xlink:href="#DejaVuSerif-61" transform="translate(1798.738281 0)"/>
     <use xlink:href="#DejaVuSerif-74" transform="translate(1858.357422 0)"/>
     <use xlink:href="#DejaVuSerif-65" transform="translate(1898.542969 0)"/>
    </g>
   </g>
   <g id="legend_1">
    <g id="patch_7">
     <path d="M 70.696155 51.557031 
L 188.871155 51.557031 
Q 190.471155 51.557031 190.471155 49.957031 
L 190.471155 27.158281 
Q 190.471155 25.558281 188.871155 25.558281 
L 70.696155 25.558281 
Q 69.096155 25.558281 69.096155 27.158281 
L 69.096155 49.957031 
Q 69.096155 51.557031 70.696155 51.557031 
z
" style="fill: #ffffff; opacity: 0.8; stroke: #cccccc; stroke-linejoin: miter"/>
    </g>
    <g id="line2d_41">
     <path d="M 72.296155 32.037031 
L 80.296155 32.037031 
L 88.296155 32.037031 
" style="fill: none; stroke-dasharray: 4.07,1.76; stroke-dashoffset: 0; stroke: #444444; stroke-width: 1.1"/>
    </g>
    <g id="text_21">
     <!-- main cap = 10^3 -->
     <g transform="translate(94.696155 34.837031) scale(0.08 -0.08)">
      <defs>
       <path id="DejaVuSerif-5e" d="M 2988 4666 
L 4684 2925 
L 4206 2925 
L 2681 4116 
L 1159 2925 
L 678 2925 
L 2375 4666 
L 2988 4666 
z
" transform="scale(0.015625)"/>
      </defs>
      <use xlink:href="#DejaVuSerif-6d"/>
      <use xlink:href="#DejaVuSerif-61" transform="translate(94.824219 0)"/>
      <use xlink:href="#DejaVuSerif-69" transform="translate(154.443359 0)"/>
      <use xlink:href="#DejaVuSerif-6e" transform="translate(186.425781 0)"/>
      <use xlink:href="#DejaVuSerif-20" transform="translate(250.830078 0)"/>
      <use xlink:href="#DejaVuSerif-63" transform="translate(282.617188 0)"/>
      <use xlink:href="#DejaVuSerif-61" transform="translate(338.623047 0)"/>
      <use xlink:href="#DejaVuSerif-70" transform="translate(398.242188 0)"/>
      <use xlink:href="#DejaVuSerif-20" transform="translate(462.255859 0)"/>
      <use xlink:href="#DejaVuSerif-3d" transform="translate(494.042969 0)"/>
      <use xlink:href="#DejaVuSerif-20" transform="translate(577.832031 0)"/>
      <use xlink:href="#DejaVuSerif-31" transform="translate(609.619141 0)"/>
      <use xlink:href="#DejaVuSerif-30" transform="translate(673.242188 0)"/>
      <use xlink:href="#DejaVuSerif-5e" transform="translate(736.865234 0)"/>
      <use xlink:href="#DejaVuSerif-33" transform="translate(820.654297 0)"/>
     </g>
    </g>
    <g id="line2d_42">
     <path d="M 72.296155 43.779531 
L 80.296155 43.779531 
L 88.296155 43.779531 
" style="fill: none; stroke-dasharray: 1.1,1.815; stroke-dashoffset: 0; stroke: #999999; stroke-width: 1.1"/>
    </g>
    <g id="text_22">
     <!-- diagnostic cap = 10^6 -->
     <g transform="translate(94.696155 46.579531) scale(0.08 -0.08)">
      <use xlink:href="#DejaVuSerif-64"/>
      <use xlink:href="#DejaVuSerif-69" transform="translate(64.013672 0)"/>
      <use xlink:href="#DejaVuSerif-61" transform="translate(95.996094 0)"/>
      <use xlink:href="#DejaVuSerif-67" transform="translate(155.615234 0)"/>
      <use xlink:href="#DejaVuSerif-6e" transform="translate(219.628906 0)"/>
      <use xlink:href="#DejaVuSerif-6f" transform="translate(284.033203 0)"/>
      <use xlink:href="#DejaVuSerif-73" transform="translate(344.238281 0)"/>
      <use xlink:href="#DejaVuSerif-74" transform="translate(395.556641 0)"/>
      <use xlink:href="#DejaVuSerif-69" transform="translate(435.742188 0)"/>
      <use xlink:href="#DejaVuSerif-63" transform="translate(467.724609 0)"/>
      <use xlink:href="#DejaVuSerif-20" transform="translate(523.730469 0)"/>
      <use xlink:href="#DejaVuSerif-63" transform="translate(555.517578 0)"/>
      <use xlink:href="#DejaVuSerif-61" transform="translate(611.523438 0)"/>
      <use xlink:href="#DejaVuSerif-70" transform="translate(671.142578 0)"/>
      <use xlink:href="#DejaVuSerif-20" transform="translate(735.15625 0)"/>
      <use xlink:href="#DejaVuSerif-3d" transform="translate(766.943359 0)"/>
      <use xlink:href="#DejaVuSerif-20" transform="translate(850.732422 0)"/>
      <use xlink:href="#DejaVuSerif-31" transform="translate(882.519531 0)"/>
      <use xlink:href="#DejaVuSerif-30" transform="translate(946.142578 0)"/>
      <use xlink:href="#DejaVuSerif-5e" transform="translate(1009.765625 0)"/>
      <use xlink:href="#DejaVuSerif-36" transform="translate(1093.554688 0)"/>
     </g>
    </g>
   </g>
  </g>
 </g>
 <defs>
  <clipPath id="pdc68b8304c">
   <rect x="65.096155" y="21.558281" width="465.529715" height="224.998036"/>
  </clipPath>
 </defs>
</svg>
