<?xml version="1.0" encoding="utf-8" standalone="no"?>
<!DOCTYPE svg PUBLIC "-//W3C//DTD SVG 1.1//EN"
  "http://www.w3.org/Graphics/SVG/1.1/DTD/svg11.dtd">
<svg xmlns:xlink="http://www.w3.org/1999/xlink" width="510.189687pt" height="295.778906pt" viewBox="0 0 510.189687 295.778906" xmlns="http://www.w3.org/2000/svg" version="1.1">
 <metadata>
  <rdf:RDF xmlns:dc="http://purl.org/dc/elements/1.1/" xmlns:cc="http://creativecommons.org/ns#" xmlns:rdf="http://www.w3.org/1999/02/22-rdf-syntax-ns#">
   <cc:Work>
    <dc:type rdf:resource="http://purl.org/dc/dcmitype/StillImage"/>
    <dc:date>2026-04-17T16:24:16.385365</dc:date>
    <dc:format>image/svg+xml</dc:format>
    <dc:creator>
     <cc:Agent>
      <dc:title>Matplotlib v3.10.8, https://matplotlib.org/</dc:title>
     </cc:Agent>
    </dc:creator>
   </cc:Work>
  </rdf:RDF>
 </metadata>
 <defs>
  <style type="text/css">*{stroke-linejoin: round; stroke-linecap: butt}</style>
 </defs>
 <g id="figure_1">
  <g id="patch_1">
   <path d="M 0 295.778906 
L 510.189687 295.778906 
L 510.189687 0 
L 0 0 
z
" style="fill: #ffffff"/>
  </g>
  <g id="axes_1">
   <g id="patch_2">
    <path d="M 38.159688 260.158281 
L 502.989687 260.158281 
L 502.989687 21.558281 
L 38.159688 21.558281 
z
" style="fill: #ffffff"/>
   </g>
   <g id="FillBetweenPolyCollection_1">
    <defs>
     <path id="m37e1afd23e" d="M 59.288324 -46.46608 
L 59.288324 -137.557049 
L 63.983576 -203.104258 
L 68.678829 -91.483425 
L 73.374081 -263.37517 
L 78.069334 -155.610858 
L 82.764586 -109.183976 
L 87.459839 -84.557388 
L 92.155092 -76.326731 
L 96.850344 -64.958134 
L 101.545597 -64.096018 
L 106.240849 -57.015932 
L 110.936102 -65.320105 
L 115.631354 -62.525036 
L 120.326607 -57.129223 
L 125.021859 -52.809493 
L 129.717112 -51.63001 
L 134.412364 -50.609732 
L 139.107617 -49.718608 
L 143.802869 -48.933675 
L 148.498122 -46.46608 
L 153.193374 -55.629023 
L 157.888627 -54.596712 
L 162.583879 -51.965087 
L 167.279132 -49.65716 
L 171.974384 -53.495744 
L 176.669637 -53.619716 
L 181.36489 -56.943231 
L 186.060142 -54.60316 
L 190.755395 -55.260363 
L 195.450647 -54.518373 
L 200.1459 -55.910121 
L 204.841152 -57.245058 
L 209.536405 -64.048252 
L 214.231657 -61.674747 
L 218.92691 -60.778469 
L 223.622162 -59.943259 
L 228.317415 -61.059313 
L 233.012667 -60.943696 
L 237.70792 -61.685748 
L 242.403172 -59.789699 
L 247.098425 -58.037145 
L 251.793677 -59.03533 
L 256.48893 -60.430077 
L 261.184182 -58.764743 
L 265.879435 -59.908047 
L 270.574687 -58.338197 
L 275.26994 -57.772158 
L 279.965193 -57.751911 
L 284.660445 -58.804957 
L 289.355698 -57.405685 
L 294.05095 -56.909688 
L 298.746203 -55.639558 
L 303.441455 -54.44247 
L 308.136708 -55.999911 
L 312.83196 -54.832483 
L 317.527213 -53.728355 
L 322.222465 -52.682699 
L 326.917718 -52.751384 
L 331.61297 -51.774166 
L 336.308223 -50.84559 
L 341.003475 -51.824952 
L 345.698728 -50.924458 
L 350.39398 -50.066455 
L 355.089233 -49.825264 
L 359.784485 -49.026669 
L 364.479738 -49.695158 
L 369.174991 -48.924022 
L 373.870243 -48.186207 
L 378.565496 -48.688752 
L 383.260748 -48.493189 
L 387.956001 -48.303833 
L 392.651253 -48.413348 
L 397.346506 -47.739274 
L 402.041758 -47.570283 
L 406.737011 -47.881346 
L 411.432263 -48.186035 
L 416.127516 -49.433551 
L 420.822768 -48.777037 
L 425.518021 -51.592872 
L 430.213273 -53.562951 
L 434.908526 -52.829256 
L 439.603778 -54.269017 
L 444.299031 -53.535617 
L 448.994283 -53.297461 
L 453.689536 -53.065863 
L 458.384789 -52.386248 
L 463.080041 -52.621298 
L 467.775294 -51.967208 
L 472.470546 -51.765873 
L 477.165799 -53.118493 
L 481.861051 -52.47484 
L 481.861051 -46.46608 
L 481.861051 -46.46608 
L 477.165799 -46.46608 
L 472.470546 -46.46608 
L 467.775294 -46.46608 
L 463.080041 -46.46608 
L 458.384789 -46.46608 
L 453.689536 -46.46608 
L 448.994283 -46.46608 
L 444.299031 -46.46608 
L 439.603778 -46.46608 
L 434.908526 -46.46608 
L 430.213273 -46.46608 
L 425.518021 -46.46608 
L 420.822768 -46.46608 
L 416.127516 -46.46608 
L 411.432263 -46.46608 
L 406.737011 -46.46608 
L 402.041758 -46.46608 
L 397.346506 -46.46608 
L 392.651253 -46.46608 
L 387.956001 -46.46608 
L 383.260748 -46.46608 
L 378.565496 -46.46608 
L 373.870243 -46.46608 
L 369.174991 -46.46608 
L 364.479738 -46.46608 
L 359.784485 -46.46608 
L 355.089233 -46.46608 
L 350.39398 -46.46608 
L 345.698728 -46.46608 
L 341.003475 -46.46608 
L 336.308223 -46.46608 
L 331.61297 -46.46608 
L 326.917718 -46.46608 
L 322.222465 -46.46608 
L 317.527213 -46.46608 
L 312.83196 -46.46608 
L 308.136708 -46.46608 
L 303.441455 -46.46608 
L 298.746203 -46.46608 
L 294.05095 -46.46608 
L 289.355698 -46.46608 
L 284.660445 -46.46608 
L 279.965193 -46.46608 
L 275.26994 -46.46608 
L 270.574687 -46.46608 
L 265.879435 -46.46608 
L 261.184182 -46.46608 
L 256.48893 -46.46608 
L 251.793677 -46.46608 
L 247.098425 -46.46608 
L 242.403172 -46.46608 
L 237.70792 -46.46608 
L 233.012667 -46.46608 
L 228.317415 -46.46608 
L 223.622162 -46.46608 
L 218.92691 -46.46608 
L 214.231657 -46.46608 
L 209.536405 -46.46608 
L 204.841152 -46.46608 
L 200.1459 -46.46608 
L 195.450647 -46.46608 
L 190.755395 -46.46608 
L 186.060142 -46.46608 
L 181.36489 -46.46608 
L 176.669637 -46.46608 
L 171.974384 -46.46608 
L 167.279132 -46.46608 
L 162.583879 -46.46608 
L 157.888627 -46.46608 
L 153.193374 -46.46608 
L 148.498122 -46.46608 
L 143.802869 -46.46608 
L 139.107617 -46.46608 
L 134.412364 -46.46608 
L 129.717112 -46.46608 
L 125.021859 -46.46608 
L 120.326607 -46.46608 
L 115.631354 -46.46608 
L 110.936102 -46.46608 
L 106.240849 -46.46608 
L 101.545597 -46.46608 
L 96.850344 -46.46608 
L 92.155092 -46.46608 
L 87.459839 -46.46608 
L 82.764586 -46.46608 
L 78.069334 -46.46608 
L 73.374081 -46.46608 
L 68.678829 -46.46608 
L 63.983576 -46.46608 
L 59.288324 -46.46608 
z
" style="stroke: #0072b2; stroke-opacity: 0.08"/>
    </defs>
    <g clip-path="url(#p11f7d0c01c)">
     <use xlink:href="#m37e1afd23e" x="0" y="295.778906" style="fill: #0072b2; fill-opacity: 0.08; stroke: #0072b2; stroke-opacity: 0.08"/>
    </g>
   </g>
   <g id="patch_3">
    <path d="M 59.288324 260.158281 
L 481.861051 260.158281 
L 481.861051 21.558281 
L 59.288324 21.558281 
z
" clip-path="url(#p11f7d0c01c)" style="fill: #009e73; opacity: 0.04; stroke: #009e73; stroke-linejoin: miter"/>
   </g>
   <g id="matplotlib.axis_1">
    <g id="xtick_1">
     <g id="line2d_1">
      <path d="M 54.593071 260.158281 
L 54.593071 21.558281 
" clip-path="url(#p11f7d0c01c)" style="fill: none; stroke: #b0b0b0; stroke-opacity: 0.25; stroke-width: 0.8; stroke-linecap: square"/>
     </g>
     <g id="line2d_2">
      <defs>
       <path id="m4e3cff7d34" d="M 0 0 
L 0 3.5 
" style="stroke: #000000; stroke-width: 0.8"/>
      </defs>
      <g>
       <use xlink:href="#m4e3cff7d34" x="54.593071" y="260.158281" style="stroke: #000000; stroke-width: 0.8"/>
      </g>
     </g>
     <g id="text_1">
      <!-- 0 -->
      <g transform="translate(52.048071 273.237031) scale(0.08 -0.08)">
       <defs>
        <path id="DejaVuSerif-30" d="M 2034 219 
Q 2513 219 2750 744 
Q 2988 1269 2988 2328 
Q 2988 3391 2750 3916 
Q 2513 4441 2034 4441 
Q 1556 4441 1318 3916 
Q 1081 3391 1081 2328 
Q 1081 1269 1318 744 
Q 1556 219 2034 219 
z
M 2034 -91 
Q 1275 -91 848 546 
Q 422 1184 422 2328 
Q 422 3475 848 4112 
Q 1275 4750 2034 4750 
Q 2797 4750 3222 4112 
Q 3647 3475 3647 2328 
Q 3647 1184 3222 546 
Q 2797 -91 2034 -91 
z
" transform="scale(0.015625)"/>
       </defs>
       <use xlink:href="#DejaVuSerif-30"/>
      </g>
     </g>
    </g>
    <g id="xtick_2">
     <g id="line2d_3">
      <path d="M 148.498122 260.158281 
L 148.498122 21.558281 
" clip-path="url(#p11f7d0c01c)" style="fill: none; stroke: #b0b0b0; stroke-opacity: 0.25; stroke-width: 0.8; stroke-linecap: square"/>
     </g>
     <g id="line2d_4">
      <g>
       <use xlink:href="#m4e3cff7d34" x="148.498122" y="260.158281" style="stroke: #000000; stroke-width: 0.8"/>
      </g>
     </g>
     <g id="text_2">
      <!-- 20 -->
      <g transform="translate(143.408122 273.237031) scale(0.08 -0.08)">
       <defs>
        <path id="DejaVuSerif-32" d="M 819 3553 
L 469 3553 
L 469 4384 
Q 803 4563 1142 4656 
Q 1481 4750 1806 4750 
Q 2534 4750 2956 4397 
Q 3378 4044 3378 3438 
Q 3378 2753 2422 1800 
Q 2347 1728 2309 1691 
L 1131 513 
L 3078 513 
L 3078 1088 
L 3444 1088 
L 3444 0 
L 434 0 
L 434 341 
L 1850 1753 
Q 2319 2222 2519 2614 
Q 2719 3006 2719 3438 
Q 2719 3909 2473 4175 
Q 2228 4441 1797 4441 
Q 1350 4441 1106 4219 
Q 863 3997 819 3553 
z
" transform="scale(0.015625)"/>
       </defs>
       <use xlink:href="#DejaVuSerif-32"/>
       <use xlink:href="#DejaVuSerif-30" transform="translate(63.623047 0)"/>
      </g>
     </g>
    </g>
    <g id="xtick_3">
     <g id="line2d_5">
      <path d="M 242.403172 260.158281 
L 242.403172 21.558281 
" clip-path="url(#p11f7d0c01c)" style="fill: none; stroke: #b0b0b0; stroke-opacity: 0.25; stroke-width: 0.8; stroke-linecap: square"/>
     </g>
     <g id="line2d_6">
      <g>
       <use xlink:href="#m4e3cff7d34" x="242.403172" y="260.158281" style="stroke: #000000; stroke-width: 0.8"/>
      </g>
     </g>
     <g id="text_3">
      <!-- 40 -->
      <g transform="translate(237.313172 273.237031) scale(0.08 -0.08)">
       <defs>
        <path id="DejaVuSerif-34" d="M 2234 1581 
L 2234 4063 
L 641 1581 
L 2234 1581 
z
M 3609 0 
L 1484 0 
L 1484 331 
L 2234 331 
L 2234 1247 
L 197 1247 
L 197 1588 
L 2241 4750 
L 2859 4750 
L 2859 1581 
L 3750 1581 
L 3750 1247 
L 2859 1247 
L 2859 331 
L 3609 331 
L 3609 0 
z
" transform="scale(0.015625)"/>
       </defs>
       <use xlink:href="#DejaVuSerif-34"/>
       <use xlink:href="#DejaVuSerif-30" transform="translate(63.623047 0)"/>
      </g>
     </g>
    </g>
    <g id="xtick_4">
     <g id="line2d_7">
      <path d="M 336.308223 260.158281 
L 336.308223 21.558281 
" clip-path="url(#p11f7d0c01c)" style="fill: none; stroke: #b0b0b0; stroke-opacity: 0.25; stroke-width: 0.8; stroke-linecap: square"/>
     </g>
     <g id="line2d_8">
      <g>
       <use xlink:href="#m4e3cff7d34" x="336.308223" y="260.158281" style="stroke: #000000; stroke-width: 0.8"/>
      </g>
     </g>
     <g id="text_4">
      <!-- 60 -->
      <g transform="translate(331.218223 273.237031) scale(0.08 -0.08)">
       <defs>
        <path id="DejaVuSerif-36" d="M 2094 219 
Q 2534 219 2771 542 
Q 3009 866 3009 1472 
Q 3009 2078 2771 2401 
Q 2534 2725 2094 2725 
Q 1647 2725 1412 2412 
Q 1178 2100 1178 1509 
Q 1178 888 1415 553 
Q 1653 219 2094 219 
z
M 1075 2569 
Q 1288 2803 1556 2918 
Q 1825 3034 2163 3034 
Q 2859 3034 3264 2615 
Q 3669 2197 3669 1472 
Q 3669 763 3233 336 
Q 2797 -91 2069 -91 
Q 1278 -91 853 498 
Q 428 1088 428 2181 
Q 428 3406 931 4078 
Q 1434 4750 2350 4750 
Q 2597 4750 2869 4703 
Q 3141 4656 3425 4563 
L 3425 3794 
L 3072 3794 
Q 3034 4109 2831 4275 
Q 2628 4441 2284 4441 
Q 1678 4441 1381 3981 
Q 1084 3522 1075 2569 
z
" transform="scale(0.015625)"/>
       </defs>
       <use xlink:href="#DejaVuSerif-36"/>
       <use xlink:href="#DejaVuSerif-30" transform="translate(63.623047 0)"/>
      </g>
     </g>
    </g>
    <g id="xtick_5">
     <g id="line2d_9">
      <path d="M 430.213273 260.158281 
L 430.213273 21.558281 
" clip-path="url(#p11f7d0c01c)" style="fill: none; stroke: #b0b0b0; stroke-opacity: 0.25; stroke-width: 0.8; stroke-linecap: square"/>
     </g>
     <g id="line2d_10">
      <g>
       <use xlink:href="#m4e3cff7d34" x="430.213273" y="260.158281" style="stroke: #000000; stroke-width: 0.8"/>
      </g>
     </g>
     <g id="text_5">
      <!-- 80 -->
      <g transform="translate(425.123273 273.237031) scale(0.08 -0.08)">
       <defs>
        <path id="DejaVuSerif-38" d="M 2981 1275 
Q 2981 1775 2732 2051 
Q 2484 2328 2034 2328 
Q 1584 2328 1336 2051 
Q 1088 1775 1088 1275 
Q 1088 772 1336 495 
Q 1584 219 2034 219 
Q 2484 219 2732 495 
Q 2981 772 2981 1275 
z
M 2853 3541 
Q 2853 3966 2637 4203 
Q 2422 4441 2034 4441 
Q 1650 4441 1433 4203 
Q 1216 3966 1216 3541 
Q 1216 3113 1433 2875 
Q 1650 2638 2034 2638 
Q 2422 2638 2637 2875 
Q 2853 3113 2853 3541 
z
M 2516 2484 
Q 3047 2413 3344 2092 
Q 3641 1772 3641 1275 
Q 3641 619 3225 264 
Q 2809 -91 2034 -91 
Q 1263 -91 845 264 
Q 428 619 428 1275 
Q 428 1772 725 2092 
Q 1022 2413 1556 2484 
Q 1084 2569 832 2842 
Q 581 3116 581 3541 
Q 581 4103 968 4426 
Q 1356 4750 2034 4750 
Q 2713 4750 3100 4426 
Q 3488 4103 3488 3541 
Q 3488 3116 3236 2842 
Q 2984 2569 2516 2484 
z
" transform="scale(0.015625)"/>
       </defs>
       <use xlink:href="#DejaVuSerif-38"/>
       <use xlink:href="#DejaVuSerif-30" transform="translate(63.623047 0)"/>
      </g>
     </g>
    </g>
    <g id="text_6">
     <!-- n -->
     <g transform="translate(267.354375 286.499219) scale(0.1 -0.1)">
      <defs>
       <path id="DejaVuSerif-6e" d="M 263 0 
L 263 331 
L 781 331 
L 781 2988 
L 231 2988 
L 231 3322 
L 1356 3322 
L 1356 2731 
Q 1516 3069 1770 3241 
Q 2025 3413 2363 3413 
Q 2913 3413 3172 3097 
Q 3431 2781 3431 2113 
L 3431 331 
L 3944 331 
L 3944 0 
L 2356 0 
L 2356 331 
L 2853 331 
L 2853 1931 
Q 2853 2541 2703 2767 
Q 2553 2994 2175 2994 
Q 1775 2994 1565 2701 
Q 1356 2409 1356 1850 
L 1356 331 
L 1856 331 
L 1856 0 
L 263 0 
z
" transform="scale(0.015625)"/>
      </defs>
      <use xlink:href="#DejaVuSerif-6e"/>
     </g>
    </g>
   </g>
   <g id="matplotlib.axis_2">
    <g id="ytick_1">
     <g id="line2d_11">
      <path d="M 38.159688 259.158418 
L 502.989687 259.158418 
" clip-path="url(#p11f7d0c01c)" style="fill: none; stroke: #b0b0b0; stroke-opacity: 0.25; stroke-width: 0.8; stroke-linecap: square"/>
     </g>
     <g id="line2d_12">
      <defs>
       <path id="m2c9d176482" d="M 0 0 
L -3.5 0 
" style="stroke: #000000; stroke-width: 0.8"/>
      </defs>
      <g>
       <use xlink:href="#m2c9d176482" x="38.159688" y="259.158418" style="stroke: #000000; stroke-width: 0.8"/>
      </g>
     </g>
     <g id="text_7">
      <!-- 2 -->
      <g transform="translate(26.069688 262.197793) scale(0.08 -0.08)">
       <use xlink:href="#DejaVuSerif-32"/>
      </g>
     </g>
    </g>
    <g id="ytick_2">
     <g id="line2d_13">
      <path d="M 38.159688 218.783793 
L 502.989687 218.783793 
" clip-path="url(#p11f7d0c01c)" style="fill: none; stroke: #b0b0b0; stroke-opacity: 0.25; stroke-width: 0.8; stroke-linecap: square"/>
     </g>
     <g id="line2d_14">
      <g>
       <use xlink:href="#m2c9d176482" x="38.159688" y="218.783793" style="stroke: #000000; stroke-width: 0.8"/>
      </g>
     </g>
     <g id="text_8">
      <!-- 4 -->
      <g transform="translate(26.069688 221.823168) scale(0.08 -0.08)">
       <use xlink:href="#DejaVuSerif-34"/>
      </g>
     </g>
    </g>
    <g id="ytick_3">
     <g id="line2d_15">
      <path d="M 38.159688 178.409169 
L 502.989687 178.409169 
" clip-path="url(#p11f7d0c01c)" style="fill: none; stroke: #b0b0b0; stroke-opacity: 0.25; stroke-width: 0.8; stroke-linecap: square"/>
     </g>
     <g id="line2d_16">
      <g>
       <use xlink:href="#m2c9d176482" x="38.159688" y="178.409169" style="stroke: #000000; stroke-width: 0.8"/>
      </g>
     </g>
     <g id="text_9">
      <!-- 6 -->
      <g transform="translate(26.069688 181.448544) scale(0.08 -0.08)">
       <use xlink:href="#DejaVuSerif-36"/>
      </g>
     </g>
    </g>
    <g id="ytick_4">
     <g id="line2d_17">
      <path d="M 38.159688 138.034545 
L 502.989687 138.034545 
" clip-path="url(#p11f7d0c01c)" style="fill: none; stroke: #b0b0b0; stroke-opacity: 0.25; stroke-width: 0.8; stroke-linecap: square"/>
     </g>
     <g id="line2d_18">
      <g>
       <use xlink:href="#m2c9d176482" x="38.159688" y="138.034545" style="stroke: #000000; stroke-width: 0.8"/>
      </g>
     </g>
     <g id="text_10">
      <!-- 8 -->
      <g transform="translate(26.069688 141.07392) scale(0.08 -0.08)">
       <use xlink:href="#DejaVuSerif-38"/>
      </g>
     </g>
    </g>
    <g id="ytick_5">
     <g id="line2d_19">
      <path d="M 38.159688 97.65992 
L 502.989687 97.65992 
" clip-path="url(#p11f7d0c01c)" style="fill: none; stroke: #b0b0b0; stroke-opacity: 0.25; stroke-width: 0.8; stroke-linecap: square"/>
     </g>
     <g id="line2d_20">
      <g>
       <use xlink:href="#m2c9d176482" x="38.159688" y="97.65992" style="stroke: #000000; stroke-width: 0.8"/>
      </g>
     </g>
     <g id="text_11">
      <!-- 10 -->
      <g transform="translate(20.979688 100.699295) scale(0.08 -0.08)">
       <defs>
        <path id="DejaVuSerif-31" d="M 909 0 
L 909 331 
L 1722 331 
L 1722 4213 
L 781 3603 
L 781 4013 
L 1919 4750 
L 2350 4750 
L 2350 331 
L 3163 331 
L 3163 0 
L 909 0 
z
" transform="scale(0.015625)"/>
       </defs>
       <use xlink:href="#DejaVuSerif-31"/>
       <use xlink:href="#DejaVuSerif-30" transform="translate(63.623047 0)"/>
      </g>
     </g>
    </g>
    <g id="ytick_6">
     <g id="line2d_21">
      <path d="M 38.159688 57.285296 
L 502.989687 57.285296 
" clip-path="url(#p11f7d0c01c)" style="fill: none; stroke: #b0b0b0; stroke-opacity: 0.25; stroke-width: 0.8; stroke-linecap: square"/>
     </g>
     <g id="line2d_22">
      <g>
       <use xlink:href="#m2c9d176482" x="38.159688" y="57.285296" style="stroke: #000000; stroke-width: 0.8"/>
      </g>
     </g>
     <g id="text_12">
      <!-- 12 -->
      <g transform="translate(20.979688 60.324671) scale(0.08 -0.08)">
       <use xlink:href="#DejaVuSerif-31"/>
       <use xlink:href="#DejaVuSerif-32" transform="translate(63.623047 0)"/>
      </g>
     </g>
    </g>
    <g id="text_13">
     <!-- S_n -->
     <g transform="translate(14.621875 150.003594) rotate(-90) scale(0.1 -0.1)">
      <defs>
       <path id="DejaVuSerif-53" d="M 594 225 
L 594 1288 
L 953 1284 
Q 969 753 1261 498 
Q 1553 244 2150 244 
Q 2706 244 2998 464 
Q 3291 684 3291 1106 
Q 3291 1444 3114 1625 
Q 2938 1806 2369 1978 
L 1753 2163 
Q 1084 2366 811 2669 
Q 538 2972 538 3500 
Q 538 4094 959 4422 
Q 1381 4750 2144 4750 
Q 2469 4750 2856 4679 
Q 3244 4609 3681 4475 
L 3681 3481 
L 3328 3481 
Q 3275 3975 2998 4195 
Q 2722 4416 2156 4416 
Q 1663 4416 1405 4214 
Q 1147 4013 1147 3628 
Q 1147 3294 1340 3103 
Q 1534 2913 2163 2725 
L 2741 2553 
Q 3375 2363 3645 2067 
Q 3916 1772 3916 1275 
Q 3916 597 3481 253 
Q 3047 -91 2188 -91 
Q 1803 -91 1404 -12 
Q 1006 66 594 225 
z
" transform="scale(0.015625)"/>
       <path id="DejaVuSerif-5f" d="M 3200 -1259 
L 3200 -1509 
L 0 -1509 
L 0 -1259 
L 3200 -1259 
z
" transform="scale(0.015625)"/>
      </defs>
      <use xlink:href="#DejaVuSerif-53"/>
      <use xlink:href="#DejaVuSerif-5f" transform="translate(68.505859 0)"/>
      <use xlink:href="#DejaVuSerif-6e" transform="translate(118.505859 0)"/>
     </g>
    </g>
   </g>
   <g id="line2d_23">
    <path d="M 59.288324 158.221857 
L 63.983576 92.674648 
L 68.678829 204.295481 
L 73.374081 32.403736 
L 78.069334 140.168049 
L 82.764586 186.59493 
L 87.459839 211.221518 
L 92.155092 219.452175 
L 96.850344 230.820772 
L 101.545597 231.682888 
L 106.240849 238.762975 
L 110.936102 230.458801 
L 115.631354 233.253871 
L 120.326607 238.649683 
L 125.021859 242.969413 
L 129.717112 244.148896 
L 134.412364 245.169174 
L 139.107617 246.060298 
L 143.802869 246.845231 
L 148.498122 249.312827 
L 153.193374 240.149883 
L 157.888627 241.182195 
L 162.583879 243.813819 
L 167.279132 246.121747 
L 171.974384 242.283162 
L 176.669637 242.15919 
L 181.36489 238.835675 
L 186.060142 241.175746 
L 190.755395 240.518543 
L 195.450647 241.260533 
L 200.1459 239.868785 
L 204.841152 238.533848 
L 209.536405 231.730654 
L 214.231657 234.104159 
L 218.92691 235.000438 
L 223.622162 235.835647 
L 228.317415 234.719593 
L 233.012667 234.83521 
L 237.70792 234.093158 
L 242.403172 235.989208 
L 247.098425 237.741761 
L 251.793677 236.743577 
L 256.48893 235.348829 
L 261.184182 237.014163 
L 265.879435 235.87086 
L 270.574687 237.440709 
L 275.26994 238.006748 
L 279.965193 238.026995 
L 284.660445 236.973949 
L 289.355698 238.373221 
L 294.05095 238.869218 
L 298.746203 240.139349 
L 303.441455 241.336436 
L 308.136708 239.778995 
L 312.83196 240.946423 
L 317.527213 242.050551 
L 322.222465 243.096207 
L 326.917718 243.027522 
L 331.61297 244.00474 
L 336.308223 244.933316 
L 341.003475 243.953954 
L 345.698728 244.854448 
L 350.39398 245.712451 
L 355.089233 245.953643 
L 359.784485 246.752238 
L 364.479738 246.083748 
L 369.174991 246.854885 
L 373.870243 247.5927 
L 378.565496 247.090154 
L 383.260748 247.285717 
L 387.956001 247.475073 
L 392.651253 247.365558 
L 397.346506 248.039632 
L 402.041758 248.208623 
L 406.737011 247.89756 
L 411.432263 247.592871 
L 416.127516 246.345356 
L 420.822768 247.00187 
L 425.518021 244.186034 
L 430.213273 242.215955 
L 434.908526 242.94965 
L 439.603778 241.50989 
L 444.299031 242.243289 
L 448.994283 242.481446 
L 453.689536 242.713043 
L 458.384789 243.392658 
L 463.080041 243.157609 
L 467.775294 243.811698 
L 472.470546 244.013033 
L 477.165799 242.660413 
L 481.861051 243.304066 
" clip-path="url(#p11f7d0c01c)" style="fill: none; stroke: #0072b2; stroke-width: 1.5; stroke-linecap: square"/>
    <defs>
     <path id="m5947259849" d="M 0 1.75 
C 0.464105 1.75 0.909265 1.565609 1.237437 1.237437 
C 1.565609 0.909265 1.75 0.464105 1.75 0 
C 1.75 -0.464105 1.565609 -0.909265 1.237437 -1.237437 
C 0.909265 -1.565609 0.464105 -1.75 0 -1.75 
C -0.464105 -1.75 -0.909265 -1.565609 -1.237437 -1.237437 
C -1.565609 -0.909265 -1.75 -0.464105 -1.75 0 
C -1.75 0.464105 -1.565609 0.909265 -1.237437 1.237437 
C -0.909265 1.565609 -0.464105 1.75 0 1.75 
z
" style="stroke: #0072b2"/>
    </defs>
    <g clip-path="url(#p11f7d0c01c)">
     <use xlink:href="#m5947259849" x="59.288324" y="158.221857" style="fill: #0072b2; stroke: #0072b2"/>
     <use xlink:href="#m5947259849" x="63.983576" y="92.674648" style="fill: #0072b2; stroke: #0072b2"/>
     <use xlink:href="#m5947259849" x="68.678829" y="204.295481" style="fill: #0072b2; stroke: #0072b2"/>
     <use xlink:href="#m5947259849" x="73.374081" y="32.403736" style="fill: #0072b2; stroke: #0072b2"/>
     <use xlink:href="#m5947259849" x="78.069334" y="140.168049" style="fill: #0072b2; stroke: #0072b2"/>
     <use xlink:href="#m5947259849" x="82.764586" y="186.59493" style="fill: #0072b2; stroke: #0072b2"/>
     <use xlink:href="#m5947259849" x="87.459839" y="211.221518" style="fill: #0072b2; stroke: #0072b2"/>
     <use xlink:href="#m5947259849" x="92.155092" y="219.452175" style="fill: #0072b2; stroke: #0072b2"/>
     <use xlink:href="#m5947259849" x="96.850344" y="230.820772" style="fill: #0072b2; stroke: #0072b2"/>
     <use xlink:href="#m5947259849" x="101.545597" y="231.682888" style="fill: #0072b2; stroke: #0072b2"/>
     <use xlink:href="#m5947259849" x="106.240849" y="238.762975" style="fill: #0072b2; stroke: #0072b2"/>
     <use xlink:href="#m5947259849" x="110.936102" y="230.458801" style="fill: #0072b2; stroke: #0072b2"/>
     <use xlink:href="#m5947259849" x="115.631354" y="233.253871" style="fill: #0072b2; stroke: #0072b2"/>
     <use xlink:href="#m5947259849" x="120.326607" y="238.649683" style="fill: #0072b2; stroke: #0072b2"/>
     <use xlink:href="#m5947259849" x="125.021859" y="242.969413" style="fill: #0072b2; stroke: #0072b2"/>
     <use xlink:href="#m5947259849" x="129.717112" y="244.148896" style="fill: #0072b2; stroke: #0072b2"/>
     <use xlink:href="#m5947259849" x="134.412364" y="245.169174" style="fill: #0072b2; stroke: #0072b2"/>
     <use xlink:href="#m5947259849" x="139.107617" y="246.060298" style="fill: #0072b2; stroke: #0072b2"/>
     <use xlink:href="#m5947259849" x="143.802869" y="246.845231" style="fill: #0072b2; stroke: #0072b2"/>
     <use xlink:href="#m5947259849" x="148.498122" y="249.312827" style="fill: #0072b2; stroke: #0072b2"/>
     <use xlink:href="#m5947259849" x="153.193374" y="240.149883" style="fill: #0072b2; stroke: #0072b2"/>
     <use xlink:href="#m5947259849" x="157.888627" y="241.182195" style="fill: #0072b2; stroke: #0072b2"/>
     <use xlink:href="#m5947259849" x="162.583879" y="243.813819" style="fill: #0072b2; stroke: #0072b2"/>
     <use xlink:href="#m5947259849" x="167.279132" y="246.121747" style="fill: #0072b2; stroke: #0072b2"/>
     <use xlink:href="#m5947259849" x="171.974384" y="242.283162" style="fill: #0072b2; stroke: #0072b2"/>
     <use xlink:href="#m5947259849" x="176.669637" y="242.15919" style="fill: #0072b2; stroke: #0072b2"/>
     <use xlink:href="#m5947259849" x="181.36489" y="238.835675" style="fill: #0072b2; stroke: #0072b2"/>
     <use xlink:href="#m5947259849" x="186.060142" y="241.175746" style="fill: #0072b2; stroke: #0072b2"/>
     <use xlink:href="#m5947259849" x="190.755395" y="240.518543" style="fill: #0072b2; stroke: #0072b2"/>
     <use xlink:href="#m5947259849" x="195.450647" y="241.260533" style="fill: #0072b2; stroke: #0072b2"/>
     <use xlink:href="#m5947259849" x="200.1459" y="239.868785" style="fill: #0072b2; stroke: #0072b2"/>
     <use xlink:href="#m5947259849" x="204.841152" y="238.533848" style="fill: #0072b2; stroke: #0072b2"/>
     <use xlink:href="#m5947259849" x="209.536405" y="231.730654" style="fill: #0072b2; stroke: #0072b2"/>
     <use xlink:href="#m5947259849" x="214.231657" y="234.104159" style="fill: #0072b2; stroke: #0072b2"/>
     <use xlink:href="#m5947259849" x="218.92691" y="235.000438" style="fill: #0072b2; stroke: #0072b2"/>
     <use xlink:href="#m5947259849" x="223.622162" y="235.835647" style="fill: #0072b2; stroke: #0072b2"/>
     <use xlink:href="#m5947259849" x="228.317415" y="234.719593" style="fill: #0072b2; stroke: #0072b2"/>
     <use xlink:href="#m5947259849" x="233.012667" y="234.83521" style="fill: #0072b2; stroke: #0072b2"/>
     <use xlink:href="#m5947259849" x="237.70792" y="234.093158" style="fill: #0072b2; stroke: #0072b2"/>
     <use xlink:href="#m5947259849" x="242.403172" y="235.989208" style="fill: #0072b2; stroke: #0072b2"/>
     <use xlink:href="#m5947259849" x="247.098425" y="237.741761" style="fill: #0072b2; stroke: #0072b2"/>
     <use xlink:href="#m5947259849" x="251.793677" y="236.743577" style="fill: #0072b2; stroke: #0072b2"/>
     <use xlink:href="#m5947259849" x="256.48893" y="235.348829" style="fill: #0072b2; stroke: #0072b2"/>
     <use xlink:href="#m5947259849" x="261.184182" y="237.014163" style="fill: #0072b2; stroke: #0072b2"/>
     <use xlink:href="#m5947259849" x="265.879435" y="235.87086" style="fill: #0072b2; stroke: #0072b2"/>
     <use xlink:href="#m5947259849" x="270.574687" y="237.440709" style="fill: #0072b2; stroke: #0072b2"/>
     <use xlink:href="#m5947259849" x="275.26994" y="238.006748" style="fill: #0072b2; stroke: #0072b2"/>
     <use xlink:href="#m5947259849" x="279.965193" y="238.026995" style="fill: #0072b2; stroke: #0072b2"/>
     <use xlink:href="#m5947259849" x="284.660445" y="236.973949" style="fill: #0072b2; stroke: #0072b2"/>
     <use xlink:href="#m5947259849" x="289.355698" y="238.373221" style="fill: #0072b2; stroke: #0072b2"/>
     <use xlink:href="#m5947259849" x="294.05095" y="238.869218" style="fill: #0072b2; stroke: #0072b2"/>
     <use xlink:href="#m5947259849" x="298.746203" y="240.139349" style="fill: #0072b2; stroke: #0072b2"/>
     <use xlink:href="#m5947259849" x="303.441455" y="241.336436" style="fill: #0072b2; stroke: #0072b2"/>
     <use xlink:href="#m5947259849" x="308.136708" y="239.778995" style="fill: #0072b2; stroke: #0072b2"/>
     <use xlink:href="#m5947259849" x="312.83196" y="240.946423" style="fill: #0072b2; stroke: #0072b2"/>
     <use xlink:href="#m5947259849" x="317.527213" y="242.050551" style="fill: #0072b2; stroke: #0072b2"/>
     <use xlink:href="#m5947259849" x="322.222465" y="243.096207" style="fill: #0072b2; stroke: #0072b2"/>
     <use xlink:href="#m5947259849" x="326.917718" y="243.027522" style="fill: #0072b2; stroke: #0072b2"/>
     <use xlink:href="#m5947259849" x="331.61297" y="244.00474" style="fill: #0072b2; stroke: #0072b2"/>
     <use xlink:href="#m5947259849" x="336.308223" y="244.933316" style="fill: #0072b2; stroke: #0072b2"/>
     <use xlink:href="#m5947259849" x="341.003475" y="243.953954" style="fill: #0072b2; stroke: #0072b2"/>
     <use xlink:href="#m5947259849" x="345.698728" y="244.854448" style="fill: #0072b2; stroke: #0072b2"/>
     <use xlink:href="#m5947259849" x="350.39398" y="245.712451" style="fill: #0072b2; stroke: #0072b2"/>
     <use xlink:href="#m5947259849" x="355.089233" y="245.953643" style="fill: #0072b2; stroke: #0072b2"/>
     <use xlink:href="#m5947259849" x="359.784485" y="246.752238" style="fill: #0072b2; stroke: #0072b2"/>
     <use xlink:href="#m5947259849" x="364.479738" y="246.083748" style="fill: #0072b2; stroke: #0072b2"/>
     <use xlink:href="#m5947259849" x="369.174991" y="246.854885" style="fill: #0072b2; stroke: #0072b2"/>
     <use xlink:href="#m5947259849" x="373.870243" y="247.5927" style="fill: #0072b2; stroke: #0072b2"/>
     <use xlink:href="#m5947259849" x="378.565496" y="247.090154" style="fill: #0072b2; stroke: #0072b2"/>
     <use xlink:href="#m5947259849" x="383.260748" y="247.285717" style="fill: #0072b2; stroke: #0072b2"/>
     <use xlink:href="#m5947259849" x="387.956001" y="247.475073" style="fill: #0072b2; stroke: #0072b2"/>
     <use xlink:href="#m5947259849" x="392.651253" y="247.365558" style="fill: #0072b2; stroke: #0072b2"/>
     <use xlink:href="#m5947259849" x="397.346506" y="248.039632" style="fill: #0072b2; stroke: #0072b2"/>
     <use xlink:href="#m5947259849" x="402.041758" y="248.208623" style="fill: #0072b2; stroke: #0072b2"/>
     <use xlink:href="#m5947259849" x="406.737011" y="247.89756" style="fill: #0072b2; stroke: #0072b2"/>
     <use xlink:href="#m5947259849" x="411.432263" y="247.592871" style="fill: #0072b2; stroke: #0072b2"/>
     <use xlink:href="#m5947259849" x="416.127516" y="246.345356" style="fill: #0072b2; stroke: #0072b2"/>
     <use xlink:href="#m5947259849" x="420.822768" y="247.00187" style="fill: #0072b2; stroke: #0072b2"/>
     <use xlink:href="#m5947259849" x="425.518021" y="244.186034" style="fill: #0072b2; stroke: #0072b2"/>
     <use xlink:href="#m5947259849" x="430.213273" y="242.215955" style="fill: #0072b2; stroke: #0072b2"/>
     <use xlink:href="#m5947259849" x="434.908526" y="242.94965" style="fill: #0072b2; stroke: #0072b2"/>
     <use xlink:href="#m5947259849" x="439.603778" y="241.50989" style="fill: #0072b2; stroke: #0072b2"/>
     <use xlink:href="#m5947259849" x="444.299031" y="242.243289" style="fill: #0072b2; stroke: #0072b2"/>
     <use xlink:href="#m5947259849" x="448.994283" y="242.481446" style="fill: #0072b2; stroke: #0072b2"/>
     <use xlink:href="#m5947259849" x="453.689536" y="242.713043" style="fill: #0072b2; stroke: #0072b2"/>
     <use xlink:href="#m5947259849" x="458.384789" y="243.392658" style="fill: #0072b2; stroke: #0072b2"/>
     <use xlink:href="#m5947259849" x="463.080041" y="243.157609" style="fill: #0072b2; stroke: #0072b2"/>
     <use xlink:href="#m5947259849" x="467.775294" y="243.811698" style="fill: #0072b2; stroke: #0072b2"/>
     <use xlink:href="#m5947259849" x="472.470546" y="244.013033" style="fill: #0072b2; stroke: #0072b2"/>
     <use xlink:href="#m5947259849" x="477.165799" y="242.660413" style="fill: #0072b2; stroke: #0072b2"/>
     <use xlink:href="#m5947259849" x="481.861051" y="243.304066" style="fill: #0072b2; stroke: #0072b2"/>
    </g>
   </g>
   <g id="patch_4">
    <path d="M 38.159688 260.158281 
L 38.159688 21.558281 
" style="fill: none; stroke: #000000; stroke-width: 0.8; stroke-linejoin: miter; stroke-linecap: square"/>
   </g>
   <g id="patch_5">
    <path d="M 502.989687 260.158281 
L 502.989687 21.558281 
" style="fill: none; stroke: #000000; stroke-width: 0.8; stroke-linejoin: miter; stroke-linecap: square"/>
   </g>
   <g id="patch_6">
    <path d="M 38.159688 260.158281 
L 502.989687 260.158281 
" style="fill: none; stroke: #000000; stroke-width: 0.8; stroke-linejoin: miter; stroke-linecap: square"/>
   </g>
   <g id="patch_7">
    <path d="M 38.159688 21.558281 
L 502.989687 21.558281 
" style="fill: none; stroke: #000000; stroke-width: 0.8; stroke-linejoin: miter; stroke-linecap: square"/>
   </g>
   <g id="text_14">
    <g id="patch_8">
     <path d="M 362.226017 57.83783 
L 455.518517 57.83783 
Q 457.918517 57.83783 457.918517 55.43783 
L 457.918517 38.73708 
Q 457.918517 36.33708 455.518517 36.33708 
L 362.226017 36.33708 
Q 359.826017 36.33708 359.826017 38.73708 
L 359.826017 55.43783 
Q 359.826017 57.83783 362.226017 57.83783 
z
" style="fill: #ffffff; stroke: #808080; stroke-linejoin: miter"/>
    </g>
    <!-- stable prefix: n = 1..91 -->
    <g transform="translate(362.226017 44.81583) scale(0.08 -0.08)">
     <defs>
      <path id="DejaVuSerif-73" d="M 359 184 
L 359 959 
L 691 959 
Q 703 588 923 403 
Q 1144 219 1575 219 
Q 1963 219 2166 364 
Q 2369 509 2369 788 
Q 2369 1006 2220 1140 
Q 2072 1275 1594 1428 
L 1178 1569 
Q 750 1706 558 1912 
Q 366 2119 366 2438 
Q 366 2894 700 3153 
Q 1034 3413 1625 3413 
Q 1888 3413 2178 3344 
Q 2469 3275 2778 3144 
L 2778 2419 
L 2447 2419 
Q 2434 2741 2221 2922 
Q 2009 3103 1644 3103 
Q 1281 3103 1095 2975 
Q 909 2847 909 2591 
Q 909 2381 1050 2254 
Q 1191 2128 1613 1997 
L 2069 1856 
Q 2541 1709 2748 1489 
Q 2956 1269 2956 922 
Q 2956 450 2595 179 
Q 2234 -91 1600 -91 
Q 1278 -91 972 -22 
Q 666 47 359 184 
z
" transform="scale(0.015625)"/>
      <path id="DejaVuSerif-74" d="M 691 2988 
L 184 2988 
L 184 3322 
L 691 3322 
L 691 4353 
L 1269 4353 
L 1269 3322 
L 2350 3322 
L 2350 2988 
L 1269 2988 
L 1269 878 
Q 1269 456 1350 337 
Q 1431 219 1650 219 
Q 1875 219 1978 351 
Q 2081 484 2088 781 
L 2522 781 
Q 2497 328 2275 118 
Q 2053 -91 1600 -91 
Q 1103 -91 897 129 
Q 691 350 691 878 
L 691 2988 
z
" transform="scale(0.015625)"/>
      <path id="DejaVuSerif-61" d="M 2547 1044 
L 2547 1747 
L 1806 1747 
Q 1378 1747 1168 1562 
Q 959 1378 959 997 
Q 959 650 1171 447 
Q 1384 244 1747 244 
Q 2106 244 2326 466 
Q 2547 688 2547 1044 
z
M 3122 2075 
L 3122 331 
L 3634 331 
L 3634 0 
L 2547 0 
L 2547 359 
Q 2356 128 2106 18 
Q 1856 -91 1522 -91 
Q 969 -91 644 203 
Q 319 497 319 997 
Q 319 1513 691 1797 
Q 1063 2081 1741 2081 
L 2547 2081 
L 2547 2309 
Q 2547 2688 2317 2895 
Q 2088 3103 1672 3103 
Q 1328 3103 1125 2947 
Q 922 2791 872 2484 
L 575 2484 
L 575 3156 
Q 875 3284 1158 3348 
Q 1441 3413 1709 3413 
Q 2400 3413 2761 3070 
Q 3122 2728 3122 2075 
z
" transform="scale(0.015625)"/>
      <path id="DejaVuSerif-62" d="M 738 331 
L 738 4531 
L 184 4531 
L 184 4863 
L 1313 4863 
L 1313 2803 
Q 1481 3116 1742 3264 
Q 2003 3413 2388 3413 
Q 3000 3413 3387 2928 
Q 3775 2444 3775 1663 
Q 3775 881 3387 395 
Q 3000 -91 2388 -91 
Q 2003 -91 1742 57 
Q 1481 206 1313 519 
L 1313 0 
L 184 0 
L 184 331 
L 738 331 
z
M 1313 1497 
Q 1313 897 1542 583 
Q 1772 269 2209 269 
Q 2650 269 2876 622 
Q 3103 975 3103 1663 
Q 3103 2353 2876 2703 
Q 2650 3053 2209 3053 
Q 1772 3053 1542 2737 
Q 1313 2422 1313 1825 
L 1313 1497 
z
" transform="scale(0.015625)"/>
      <path id="DejaVuSerif-6c" d="M 1313 331 
L 1856 331 
L 1856 0 
L 184 0 
L 184 331 
L 738 331 
L 738 4531 
L 184 4531 
L 184 4863 
L 1313 4863 
L 1313 331 
z
" transform="scale(0.015625)"/>
      <path id="DejaVuSerif-65" d="M 3469 1600 
L 991 1600 
L 991 1575 
Q 991 903 1244 561 
Q 1497 219 1991 219 
Q 2369 219 2611 417 
Q 2853 616 2950 1006 
L 3413 1006 
Q 3275 459 2904 184 
Q 2534 -91 1931 -91 
Q 1203 -91 761 389 
Q 319 869 319 1663 
Q 319 2450 753 2931 
Q 1188 3413 1894 3413 
Q 2647 3413 3050 2948 
Q 3453 2484 3469 1600 
z
M 2791 1931 
Q 2772 2513 2545 2808 
Q 2319 3103 1894 3103 
Q 1497 3103 1269 2806 
Q 1041 2509 991 1931 
L 2791 1931 
z
" transform="scale(0.015625)"/>
      <path id="DejaVuSerif-20" transform="scale(0.015625)"/>
      <path id="DejaVuSerif-70" d="M 1313 1825 
L 1313 1497 
Q 1313 897 1542 583 
Q 1772 269 2209 269 
Q 2650 269 2876 622 
Q 3103 975 3103 1663 
Q 3103 2353 2876 2703 
Q 2650 3053 2209 3053 
Q 1772 3053 1542 2737 
Q 1313 2422 1313 1825 
z
M 738 2988 
L 184 2988 
L 184 3322 
L 1313 3322 
L 1313 2803 
Q 1481 3116 1742 3264 
Q 2003 3413 2388 3413 
Q 3000 3413 3387 2928 
Q 3775 2444 3775 1663 
Q 3775 881 3387 395 
Q 3000 -91 2388 -91 
Q 2003 -91 1742 57 
Q 1481 206 1313 519 
L 1313 -997 
L 1856 -997 
L 1856 -1331 
L 184 -1331 
L 184 -997 
L 738 -997 
L 738 2988 
z
" transform="scale(0.015625)"/>
      <path id="DejaVuSerif-72" d="M 3059 3328 
L 3059 2497 
L 2728 2497 
Q 2713 2744 2591 2866 
Q 2469 2988 2234 2988 
Q 1809 2988 1582 2694 
Q 1356 2400 1356 1850 
L 1356 331 
L 2022 331 
L 2022 0 
L 263 0 
L 263 331 
L 781 331 
L 781 2994 
L 231 2994 
L 231 3322 
L 1356 3322 
L 1356 2731 
Q 1525 3078 1790 3245 
Q 2056 3413 2438 3413 
Q 2578 3413 2733 3391 
Q 2888 3369 3059 3328 
z
" transform="scale(0.015625)"/>
      <path id="DejaVuSerif-66" d="M 2753 4078 
L 2450 4078 
Q 2447 4313 2317 4434 
Q 2188 4556 1941 4556 
Q 1619 4556 1487 4379 
Q 1356 4203 1356 3750 
L 1356 3322 
L 2284 3322 
L 2284 2988 
L 1356 2988 
L 1356 331 
L 2094 331 
L 2094 0 
L 231 0 
L 231 331 
L 781 331 
L 781 2988 
L 231 2988 
L 231 3322 
L 781 3322 
L 781 3738 
Q 781 4294 1070 4578 
Q 1359 4863 1919 4863 
Q 2128 4863 2337 4825 
Q 2547 4788 2753 4709 
L 2753 4078 
z
" transform="scale(0.015625)"/>
      <path id="DejaVuSerif-69" d="M 622 4353 
Q 622 4497 726 4603 
Q 831 4709 978 4709 
Q 1122 4709 1226 4603 
Q 1331 4497 1331 4353 
Q 1331 4206 1228 4103 
Q 1125 4000 978 4000 
Q 831 4000 726 4103 
Q 622 4206 622 4353 
z
M 1356 331 
L 1900 331 
L 1900 0 
L 231 0 
L 231 331 
L 781 331 
L 781 2988 
L 231 2988 
L 231 3322 
L 1356 3322 
L 1356 331 
z
" transform="scale(0.015625)"/>
      <path id="DejaVuSerif-78" d="M 1863 2028 
L 2559 2988 
L 2113 2988 
L 2113 3322 
L 3391 3322 
L 3391 2988 
L 2950 2988 
L 2059 1759 
L 3097 331 
L 3531 331 
L 3531 0 
L 1997 0 
L 1997 331 
L 2419 331 
L 1697 1325 
L 972 331 
L 1403 331 
L 1403 0 
L 141 0 
L 141 331 
L 581 331 
L 1497 1594 
L 488 2988 
L 78 2988 
L 78 3322 
L 1563 3322 
L 1563 2988 
L 1166 2988 
L 1863 2028 
z
" transform="scale(0.015625)"/>
      <path id="DejaVuSerif-3a" d="M 666 325 
Q 666 500 786 622 
Q 906 744 1081 744 
Q 1256 744 1376 622 
Q 1497 500 1497 325 
Q 1497 150 1378 29 
Q 1259 -91 1081 -91 
Q 903 -91 784 29 
Q 666 150 666 325 
z
M 666 2363 
Q 666 2538 786 2658 
Q 906 2778 1081 2778 
Q 1259 2778 1378 2659 
Q 1497 2541 1497 2363 
Q 1497 2184 1378 2065 
Q 1259 1947 1081 1947 
Q 906 1947 786 2067 
Q 666 2188 666 2363 
z
" transform="scale(0.015625)"/>
      <path id="DejaVuSerif-3d" d="M 678 2894 
L 4684 2894 
L 4684 2394 
L 678 2394 
L 678 2894 
z
M 678 1619 
L 4684 1619 
L 4684 1119 
L 678 1119 
L 678 1619 
z
" transform="scale(0.015625)"/>
      <path id="DejaVuSerif-2e" d="M 603 325 
Q 603 500 722 622 
Q 841 744 1019 744 
Q 1191 744 1312 622 
Q 1434 500 1434 325 
Q 1434 153 1312 31 
Q 1191 -91 1019 -91 
Q 841 -91 722 29 
Q 603 150 603 325 
z
" transform="scale(0.015625)"/>
      <path id="DejaVuSerif-39" d="M 2994 2091 
Q 2784 1856 2512 1740 
Q 2241 1625 1900 1625 
Q 1206 1625 804 2044 
Q 403 2463 403 3188 
Q 403 3897 839 4323 
Q 1275 4750 2003 4750 
Q 2794 4750 3217 4161 
Q 3641 3572 3641 2478 
Q 3641 1253 3137 581 
Q 2634 -91 1722 -91 
Q 1475 -91 1203 -44 
Q 931 3 647 97 
L 647 872 
L 997 872 
Q 1038 556 1241 387 
Q 1444 219 1784 219 
Q 2391 219 2687 676 
Q 2984 1134 2994 2091 
z
M 1978 4441 
Q 1534 4441 1298 4117 
Q 1063 3794 1063 3188 
Q 1063 2581 1298 2256 
Q 1534 1931 1978 1931 
Q 2422 1931 2658 2245 
Q 2894 2559 2894 3150 
Q 2894 3772 2656 4106 
Q 2419 4441 1978 4441 
z
" transform="scale(0.015625)"/>
     </defs>
     <use xlink:href="#DejaVuSerif-73"/>
     <use xlink:href="#DejaVuSerif-74" transform="translate(51.318359 0)"/>
     <use xlink:href="#DejaVuSerif-61" transform="translate(91.503906 0)"/>
     <use xlink:href="#DejaVuSerif-62" transform="translate(151.123047 0)"/>
     <use xlink:href="#DejaVuSerif-6c" transform="translate(215.136719 0)"/>
     <use xlink:href="#DejaVuSerif-65" transform="translate(247.119141 0)"/>
     <use xlink:href="#DejaVuSerif-20" transform="translate(306.298828 0)"/>
     <use xlink:href="#DejaVuSerif-70" transform="translate(338.085938 0)"/>
     <use xlink:href="#DejaVuSerif-72" transform="translate(402.099609 0)"/>
     <use xlink:href="#DejaVuSerif-65" transform="translate(449.902344 0)"/>
     <use xlink:href="#DejaVuSerif-66" transform="translate(509.082031 0)"/>
     <use xlink:href="#DejaVuSerif-69" transform="translate(546.09375 0)"/>
     <use xlink:href="#DejaVuSerif-78" transform="translate(578.076172 0)"/>
     <use xlink:href="#DejaVuSerif-3a" transform="translate(634.472656 0)"/>
     <use xlink:href="#DejaVuSerif-20" transform="translate(668.164062 0)"/>
     <use xlink:href="#DejaVuSerif-6e" transform="translate(699.951172 0)"/>
     <use xlink:href="#DejaVuSerif-20" transform="translate(764.355469 0)"/>
     <use xlink:href="#DejaVuSerif-3d" transform="translate(796.142578 0)"/>
     <use xlink:href="#DejaVuSerif-20" transform="translate(879.931641 0)"/>
     <use xlink:href="#DejaVuSerif-31" transform="translate(911.71875 0)"/>
     <use xlink:href="#DejaVuSerif-2e" transform="translate(975.341797 0)"/>
     <use xlink:href="#DejaVuSerif-2e" transform="translate(1007.128906 0)"/>
     <use xlink:href="#DejaVuSerif-39" transform="translate(1038.916016 0)"/>
     <use xlink:href="#DejaVuSerif-31" transform="translate(1102.539062 0)"/>
    </g>
    <!-- count = 91 -->
    <g transform="translate(362.226017 53.77408) scale(0.08 -0.08)">
     <defs>
      <path id="DejaVuSerif-63" d="M 3291 997 
Q 3169 466 2822 187 
Q 2475 -91 1925 -91 
Q 1200 -91 759 389 
Q 319 869 319 1663 
Q 319 2459 759 2936 
Q 1200 3413 1925 3413 
Q 2241 3413 2553 3339 
Q 2866 3266 3181 3116 
L 3181 2266 
L 2847 2266 
Q 2781 2703 2561 2903 
Q 2341 3103 1931 3103 
Q 1466 3103 1228 2742 
Q 991 2381 991 1663 
Q 991 944 1227 581 
Q 1463 219 1931 219 
Q 2303 219 2525 412 
Q 2747 606 2828 997 
L 3291 997 
z
" transform="scale(0.015625)"/>
      <path id="DejaVuSerif-6f" d="M 1925 219 
Q 2388 219 2623 584 
Q 2859 950 2859 1663 
Q 2859 2375 2623 2739 
Q 2388 3103 1925 3103 
Q 1463 3103 1227 2739 
Q 991 2375 991 1663 
Q 991 950 1228 584 
Q 1466 219 1925 219 
z
M 1925 -91 
Q 1200 -91 759 389 
Q 319 869 319 1663 
Q 319 2456 758 2934 
Q 1197 3413 1925 3413 
Q 2653 3413 3092 2934 
Q 3531 2456 3531 1663 
Q 3531 869 3092 389 
Q 2653 -91 1925 -91 
z
" transform="scale(0.015625)"/>
      <path id="DejaVuSerif-75" d="M 2266 3322 
L 3341 3322 
L 3341 331 
L 3884 331 
L 3884 0 
L 2766 0 
L 2766 588 
Q 2606 256 2353 82 
Q 2100 -91 1766 -91 
Q 1213 -91 952 223 
Q 691 538 691 1209 
L 691 2988 
L 172 2988 
L 172 3322 
L 1269 3322 
L 1269 1388 
Q 1269 781 1417 556 
Q 1566 331 1947 331 
Q 2347 331 2556 625 
Q 2766 919 2766 1478 
L 2766 2988 
L 2266 2988 
L 2266 3322 
z
" transform="scale(0.015625)"/>
     </defs>
     <use xlink:href="#DejaVuSerif-63"/>
     <use xlink:href="#DejaVuSerif-6f" transform="translate(56.005859 0)"/>
     <use xlink:href="#DejaVuSerif-75" transform="translate(116.210938 0)"/>
     <use xlink:href="#DejaVuSerif-6e" transform="translate(180.615234 0)"/>
     <use xlink:href="#DejaVuSerif-74" transform="translate(245.019531 0)"/>
     <use xlink:href="#DejaVuSerif-20" transform="translate(285.205078 0)"/>
     <use xlink:href="#DejaVuSerif-3d" transform="translate(316.992188 0)"/>
     <use xlink:href="#DejaVuSerif-20" transform="translate(400.78125 0)"/>
     <use xlink:href="#DejaVuSerif-39" transform="translate(432.568359 0)"/>
     <use xlink:href="#DejaVuSerif-31" transform="translate(496.191406 0)"/>
    </g>
   </g>
   <g id="text_15">
    <!-- A -->
    <g transform="translate(42.807988 36.20825) scale(0.13 -0.13)">
     <defs>
      <path id="DejaVuSerif-Bold-41" d="M -50 0 
L -50 378 
L 331 378 
L 2088 4666 
L 2834 4666 
L 4594 378 
L 5038 378 
L 5038 0 
L 2853 0 
L 2853 378 
L 3309 378 
L 2925 1331 
L 1172 1331 
L 781 378 
L 1338 378 
L 1338 0 
L -50 0 
z
M 1325 1709 
L 2772 1709 
L 2053 3494 
L 1325 1709 
z
" transform="scale(0.015625)"/>
     </defs>
     <use xlink:href="#DejaVuSerif-Bold-41"/>
    </g>
   </g>
   <g id="text_16">
    <!-- Stable-prefix observable on the certified range -->
    <g transform="translate(139.828516 15.558281) scale(0.11 -0.11)">
     <defs>
      <path id="DejaVuSerif-2d" d="M 281 1959 
L 1881 1959 
L 1881 1472 
L 281 1472 
L 281 1959 
z
" transform="scale(0.015625)"/>
      <path id="DejaVuSerif-76" d="M 1581 0 
L 359 2988 
L -19 2988 
L -19 3322 
L 1509 3322 
L 1509 2988 
L 978 2988 
L 1913 703 
L 2847 2988 
L 2350 2988 
L 2350 3322 
L 3597 3322 
L 3597 2988 
L 3225 2988 
L 2003 0 
L 1581 0 
z
" transform="scale(0.015625)"/>
      <path id="DejaVuSerif-68" d="M 263 0 
L 263 331 
L 781 331 
L 781 4531 
L 231 4531 
L 231 4863 
L 1356 4863 
L 1356 2731 
Q 1516 3069 1770 3241 
Q 2025 3413 2363 3413 
Q 2913 3413 3172 3097 
Q 3431 2781 3431 2113 
L 3431 331 
L 3944 331 
L 3944 0 
L 2356 0 
L 2356 331 
L 2853 331 
L 2853 1931 
Q 2853 2541 2704 2764 
Q 2556 2988 2175 2988 
Q 1775 2988 1565 2697 
Q 1356 2406 1356 1850 
L 1356 331 
L 1856 331 
L 1856 0 
L 263 0 
z
" transform="scale(0.015625)"/>
      <path id="DejaVuSerif-64" d="M 3359 331 
L 3909 331 
L 3909 0 
L 2784 0 
L 2784 519 
Q 2616 206 2355 57 
Q 2094 -91 1709 -91 
Q 1097 -91 708 395 
Q 319 881 319 1663 
Q 319 2444 706 2928 
Q 1094 3413 1709 3413 
Q 2094 3413 2355 3264 
Q 2616 3116 2784 2803 
L 2784 4531 
L 2241 4531 
L 2241 4863 
L 3359 4863 
L 3359 331 
z
M 2784 1497 
L 2784 1825 
Q 2784 2422 2554 2737 
Q 2325 3053 1888 3053 
Q 1444 3053 1217 2703 
Q 991 2353 991 1663 
Q 991 975 1217 622 
Q 1444 269 1888 269 
Q 2325 269 2554 583 
Q 2784 897 2784 1497 
z
" transform="scale(0.015625)"/>
      <path id="DejaVuSerif-67" d="M 3359 2988 
L 3359 72 
Q 3359 -644 2965 -1033 
Q 2572 -1422 1844 -1422 
Q 1516 -1422 1216 -1362 
Q 916 -1303 641 -1184 
L 641 -488 
L 941 -488 
Q 997 -813 1206 -963 
Q 1416 -1113 1806 -1113 
Q 2313 -1113 2548 -827 
Q 2784 -541 2784 72 
L 2784 519 
Q 2616 206 2355 57 
Q 2094 -91 1709 -91 
Q 1097 -91 708 395 
Q 319 881 319 1663 
Q 319 2444 706 2928 
Q 1094 3413 1709 3413 
Q 2094 3413 2355 3264 
Q 2616 3116 2784 2803 
L 2784 3322 
L 3909 3322 
L 3909 2988 
L 3359 2988 
z
M 2784 1825 
Q 2784 2422 2554 2737 
Q 2325 3053 1888 3053 
Q 1444 3053 1217 2703 
Q 991 2353 991 1663 
Q 991 975 1217 622 
Q 1444 269 1888 269 
Q 2325 269 2554 583 
Q 2784 897 2784 1497 
L 2784 1825 
z
" transform="scale(0.015625)"/>
     </defs>
     <use xlink:href="#DejaVuSerif-53"/>
     <use xlink:href="#DejaVuSerif-74" transform="translate(68.505859 0)"/>
     <use xlink:href="#DejaVuSerif-61" transform="translate(108.691406 0)"/>
     <use xlink:href="#DejaVuSerif-62" transform="translate(168.310547 0)"/>
     <use xlink:href="#DejaVuSerif-6c" transform="translate(232.324219 0)"/>
     <use xlink:href="#DejaVuSerif-65" transform="translate(264.306641 0)"/>
     <use xlink:href="#DejaVuSerif-2d" transform="translate(323.486328 0)"/>
     <use xlink:href="#DejaVuSerif-70" transform="translate(357.275391 0)"/>
     <use xlink:href="#DejaVuSerif-72" transform="translate(421.289062 0)"/>
     <use xlink:href="#DejaVuSerif-65" transform="translate(469.091797 0)"/>
     <use xlink:href="#DejaVuSerif-66" transform="translate(528.271484 0)"/>
     <use xlink:href="#DejaVuSerif-69" transform="translate(565.283203 0)"/>
     <use xlink:href="#DejaVuSerif-78" transform="translate(597.265625 0)"/>
     <use xlink:href="#DejaVuSerif-20" transform="translate(653.662109 0)"/>
     <use xlink:href="#DejaVuSerif-6f" transform="translate(685.449219 0)"/>
     <use xlink:href="#DejaVuSerif-62" transform="translate(745.654297 0)"/>
     <use xlink:href="#DejaVuSerif-73" transform="translate(809.667969 0)"/>
     <use xlink:href="#DejaVuSerif-65" transform="translate(860.986328 0)"/>
     <use xlink:href="#DejaVuSerif-72" transform="translate(920.166016 0)"/>
     <use xlink:href="#DejaVuSerif-76" transform="translate(967.96875 0)"/>
     <use xlink:href="#DejaVuSerif-61" transform="translate(1024.462891 0)"/>
     <use xlink:href="#DejaVuSerif-62" transform="translate(1084.082031 0)"/>
     <use xlink:href="#DejaVuSerif-6c" transform="translate(1148.095703 0)"/>
     <use xlink:href="#DejaVuSerif-65" transform="translate(1180.078125 0)"/>
     <use xlink:href="#DejaVuSerif-20" transform="translate(1239.257812 0)"/>
     <use xlink:href="#DejaVuSerif-6f" transform="translate(1271.044922 0)"/>
     <use xlink:href="#DejaVuSerif-6e" transform="translate(1331.25 0)"/>
     <use xlink:href="#DejaVuSerif-20" transform="translate(1395.654297 0)"/>
     <use xlink:href="#DejaVuSerif-74" transform="translate(1427.441406 0)"/>
     <use xlink:href="#DejaVuSerif-68" transform="translate(1467.626953 0)"/>
     <use xlink:href="#DejaVuSerif-65" transform="translate(1532.03125 0)"/>
     <use xlink:href="#DejaVuSerif-20" transform="translate(1591.210938 0)"/>
     <use xlink:href="#DejaVuSerif-63" transform="translate(1622.998047 0)"/>
     <use xlink:href="#DejaVuSerif-65" transform="translate(1679.003906 0)"/>
     <use xlink:href="#DejaVuSerif-72" transform="translate(1738.183594 0)"/>
     <use xlink:href="#DejaVuSerif-74" transform="translate(1785.986328 0)"/>
     <use xlink:href="#DejaVuSerif-69" transform="translate(1826.171875 0)"/>
     <use xlink:href="#DejaVuSerif-66" transform="translate(1858.154297 0)"/>
     <use xlink:href="#DejaVuSerif-69" transform="translate(1895.166016 0)"/>
     <use xlink:href="#DejaVuSerif-65" transform="translate(1927.148438 0)"/>
     <use xlink:href="#DejaVuSerif-64" transform="translate(1986.328125 0)"/>
     <use xlink:href="#DejaVuSerif-20" transform="translate(2050.341797 0)"/>
     <use xlink:href="#DejaVuSerif-72" transform="translate(2082.128906 0)"/>
     <use xlink:href="#DejaVuSerif-61" transform="translate(2129.931641 0)"/>
     <use xlink:href="#DejaVuSerif-6e" transform="translate(2189.550781 0)"/>
     <use xlink:href="#DejaVuSerif-67" transform="translate(2253.955078 0)"/>
     <use xlink:href="#DejaVuSerif-65" transform="translate(2317.96875 0)"/>
    </g>
   </g>
  </g>
 </g>
 <defs>
  <clipPath id="p11f7d0c01c">
   <rect x="38.159688" y="21.558281" width="464.83" height="238.6"/>
  </clipPath>
 </defs>
</svg>
